<svg id="Layer_1" xmlns="http://www.w3.org/2000/svg" fill="currentColor" class="h-full w-full" viewBox="0 0 609.41 609.02">
<g><path d="M609.41,334.08c-.07,.18-.17,.35-.21,.54-.65,2.88-3.04,4.73-5.94,4.43-8.62-.87-17.24-1.8-25.87-2.7-8.07-.84-16.13-1.67-24.2-2.51-8.11-.84-16.21-1.69-24.32-2.54-7.99-.83-15.97-1.66-23.96-2.5-8.15-.85-16.29-1.7-24.44-2.55-4.13-.43-8.26-.89-12.4-1.28-3.48-.33-5.69-2.86-5.33-6.2,.34-3.13,3.1-5.09,6.47-4.73,9.65,1.03,19.31,2.01,28.97,3.01,9.62,1,19.23,2.02,28.85,3.03,8.82,.92,17.65,1.82,26.47,2.74,8.07,.84,16.13,1.7,24.2,2.54,7.23,.75,14.46,1.5,21.7,2.25,1.67,.17,3.34,.32,5.01,.52,2.37,.29,4.12,1.83,4.76,4.14,.06,.21,.17,.42,.26,.62v1.2Z"/><path d="M303.41,0c.41,.11,.82,.21,1.23,.32,2.41,.63,4.05,2.77,4.05,5.3,0,45.07,0,90.14,0,135.21,0,2.95-2.18,5.21-5.16,5.42-2.77,.19-5.25-1.79-5.69-4.58-.11-.71-.14-1.43-.14-2.15,0-43.95,0-87.9,0-131.85,0-5.07,.81-6.2,5.48-7.67,.08,0,.16,0,.24,0Z"/><path d="M5.98,341.55c-3.24,.1-5.71-1.94-5.96-4.76-.28-3.26,1.62-5.76,4.86-6.13,6.63-.75,13.27-1.41,19.91-2.1,8.11-.85,16.22-1.69,24.32-2.54,7.99-.83,15.98-1.66,23.97-2.5,8.19-.85,16.37-1.71,24.56-2.56,8.82-.92,17.65-1.82,26.47-2.74,4.97-.52,9.94-1.04,14.9-1.56,1.59-.17,3.18-.35,4.69,.47,2.11,1.15,3.19,3.4,2.76,5.87-.39,2.26-2.19,4.1-4.51,4.35-6.75,.75-13.51,1.44-20.27,2.15-7.31,.77-14.63,1.52-21.94,2.28-8.07,.84-16.14,1.68-24.21,2.52-8.11,.85-16.22,1.7-24.32,2.54-7.99,.83-15.98,1.66-23.97,2.49-6.64,.69-13.27,1.39-19.91,2.08-.52,.05-1.04,.09-1.37,.12Z"/><path d="M17.78,207.07c1.73,.5,3.15,.88,4.55,1.33,40.05,12.89,80.09,25.79,120.14,38.69,2.32,.75,4.64,1.47,6.95,2.25,2.97,1.02,4.47,4,3.53,6.9-.95,2.92-3.88,4.47-6.9,3.5-10.84-3.45-21.67-6.93-32.5-10.42-26.25-8.45-52.51-16.91-78.76-25.37-6.15-1.98-12.33-3.91-18.46-5.97-4.21-1.41-5.2-6.61-1.78-9.4,.93-.76,2.23-1.07,3.24-1.52Z"/><path d="M455.05,252.08c0-2.49,1.36-4.37,3.85-5.18,7.32-2.39,14.66-4.74,21.99-7.1,23.02-7.41,46.05-14.82,69.08-22.23,12.73-4.1,25.45-8.2,38.18-12.29,3.24-1.04,6.31,.41,7.28,3.4,.97,2.99-.65,6-3.87,7.04-16.71,5.39-33.43,10.76-50.15,16.14-20.21,6.51-40.43,13.02-60.64,19.52-6.19,1.99-12.37,4.02-18.59,5.95-3.75,1.17-7.15-1.4-7.14-5.26Z"/><path d="M78.58,101.48c1.53-.06,2.76,.6,3.91,1.56,11.64,9.7,23.28,19.39,34.93,29.09,22.8,18.98,45.58,37.97,68.4,56.92,1.91,1.59,3.03,3.41,2.54,5.92-.82,4.15-5.65,5.78-9.01,3.02-4.61-3.77-9.16-7.61-13.74-11.42-27.9-23.22-55.79-46.45-83.69-69.67-2.34-1.94-4.69-3.86-6.99-5.85-1.79-1.55-2.32-3.91-1.47-6.12,.82-2.13,2.78-3.46,5.13-3.45Z"/><path d="M532.71,103.34c-.01,1.68-.69,3.05-1.91,4.14-15.8,14.1-31.61,28.2-47.42,42.3-16.61,14.82-33.22,29.64-49.83,44.46-1.31,1.17-2.62,2.35-3.94,3.5-2.46,2.14-5.89,1.96-7.93-.4-2.02-2.34-1.75-5.69,.64-7.82,27.58-24.61,55.17-49.22,82.75-73.82,6.08-5.43,12.16-10.87,18.25-16.28,3.19-2.83,7.91-1.64,9.1,2.29,.16,.53,.19,1.09,.28,1.64Z"/><path d="M431.18,31.4c-.16,.48-.37,1.46-.77,2.36-10.83,24.15-21.68,48.3-32.53,72.44-7.49,16.68-14.99,33.36-22.48,50.03-1.21,2.68-3.67,4.05-6.25,3.51-3.52-.75-5.37-4.34-3.89-7.72,1.82-4.17,3.72-8.31,5.58-12.46,16.56-36.85,33.12-73.7,49.69-110.56,1.38-3.07,4.39-4.38,7.28-3.19,2.06,.85,3.39,2.84,3.39,5.58Z"/><path d="M235.9,160.84c-1.87-.07-3.57-1.23-4.57-3.46-3.74-8.34-7.49-16.68-11.24-25.02-14.62-32.52-29.21-65.05-43.89-97.54-1.78-3.95,.32-7.59,3.68-8.28,2.55-.52,5.04,.79,6.2,3.37,3.5,7.75,6.99,15.51,10.47,23.26,13.73,30.56,27.46,61.11,41.19,91.67,1.26,2.8,2.58,5.59,3.75,8.43,1.53,3.69-1.08,7.56-5.6,7.58Z"/><path d="M139.99,291.37c-4.89-.51-10.06-1.05-15.22-1.59-8.07-.84-16.14-1.67-24.21-2.51-8.07-.84-16.14-1.69-24.2-2.54-2.5-.26-5.01-.53-7.51-.78-3.34-.34-5.48-2.85-5.19-6.11,.27-3.01,2.95-5.11,6.2-4.8,5.21,.51,10.42,1.05,15.62,1.6,8.11,.84,16.22,1.7,24.32,2.55,8.23,.86,16.45,1.72,24.68,2.58,2.27,.24,4.54,.4,6.79,.72,3.2,.46,5.17,3.22,4.67,6.4-.42,2.66-2.84,4.57-5.95,4.48Z"/><path d="M465.99,291.39c-2.92,.03-5.29-2.11-5.57-5.04-.27-2.77,1.74-5.46,4.58-5.81,5.12-.63,10.25-1.12,15.37-1.65,8.11-.85,16.22-1.7,24.32-2.54,7.99-.83,15.98-1.66,23.97-2.49,2.62-.27,5.25-.55,7.87-.8,3.33-.31,5.94,1.73,6.25,4.86,.32,3.21-1.85,5.69-5.25,6.05-14.98,1.57-29.97,3.15-44.95,4.71-8.51,.89-17.01,1.77-25.52,2.65-.36,.04-.72,.05-1.08,.07Z"/><path d="M161.38,227.46c-.89-.31-1.85-.5-2.66-.96-20.68-11.8-41.34-23.62-62-35.45-2.77-1.59-3.65-4.89-2.11-7.56,1.54-2.66,4.82-3.54,7.6-1.96,20.67,11.81,41.34,23.63,62,35.46,2.34,1.34,3.35,3.86,2.63,6.35-.69,2.4-2.83,3.96-5.45,4.11Z"/><path d="M439.43,222.08c0-2.54,1.1-4.11,3.02-5.21,13.94-7.97,27.88-15.94,41.82-23.91,6.62-3.79,13.24-7.59,19.87-11.36,3.04-1.73,6.53-.68,7.92,2.33,1.24,2.69,.29,5.62-2.44,7.19-5.12,2.96-10.26,5.88-15.39,8.82-15.43,8.82-30.85,17.65-46.29,26.47-3.4,1.94-7.29,.51-8.31-3.05-.14-.49-.16-1.02-.2-1.27Z"/><path d="M393.57,171.57c.57-1.19,.98-2.51,1.75-3.56,9.89-13.56,19.83-27.09,29.75-40.62,3.97-5.41,7.93-10.84,11.92-16.24,1.54-2.09,3.74-2.9,5.97-2.3,3.86,1.04,5.36,5.4,2.95,8.71-3.41,4.69-6.85,9.35-10.28,14.02-10.52,14.34-21.04,28.68-31.55,43.03-1.34,1.83-3.04,2.78-5.32,2.55-2.8-.28-4.88-2.6-4.88-5.44-.11-.05-.21-.1-.32-.15Z"/><path d="M159.37,114.12c.01-2.23,1.37-4.24,3.41-5.06,2.05-.82,4.43-.33,5.98,1.25,.28,.28,.53,.6,.76,.92,13.92,18.98,27.84,37.96,41.76,56.94,2.17,2.96,1.46,6.73-1.54,8.36-2.55,1.39-5.46,.68-7.3-1.83-7.78-10.6-15.55-21.2-23.33-31.81-6.12-8.35-12.26-16.68-18.33-25.06-.76-1.05-1.16-2.37-1.73-3.57,.11-.05,.21-.1,.32-.15Z"/><path d="M337.25,149.8c-3.54,0-6.11-3.14-5.37-6.65,2.93-13.74,5.88-27.48,8.83-41.22,1.97-9.21,3.95-18.42,5.92-27.64,.63-2.95,2.32-4.72,4.87-5.02,3.76-.44,6.85,2.84,6.06,6.55-3.18,14.91-6.39,29.82-9.59,44.73-1.74,8.12-3.49,16.24-5.22,24.36-.64,3.03-2.7,4.88-5.49,4.89Z"/><path d="M269.24,149.8c-2.68,.01-4.84-1.75-5.43-4.5-2.27-10.54-4.51-21.08-6.77-31.61-2.67-12.45-5.36-24.9-8.03-37.34-.61-2.82,.41-5.28,2.66-6.46,2.21-1.16,4.96-.79,6.58,1.09,.67,.78,1.22,1.82,1.43,2.83,4.98,23.02,9.92,46.04,14.85,69.07,.79,3.7-1.68,6.92-5.29,6.93Z"/></g><path d="M150.57,436.7c3.17,4.91,7.63,8.02,12.79,10.23,.33,.14,.77,.21,1.1,.11,4.03-1.16,7.35,1.35,7.35,5.58,0,47.94,0,95.88,0,143.82v1.57H430.58c0-.5,0-.96,0-1.43,0-49.04,0-98.07,0-147.11,0-3.37,1.83-5.65,5-5.95,1.08-.1,2.2,.27,3.44,.45,5.15-2.3,10.04-5.36,13.24-10.49,6.39,7.43,14.87,10.13,24.04,11.37,1.3,.17,2.48-.78,2.68-2.05,.21-1.33-.65-2.48-2.03-2.78-3.12-.69-6.3-1.22-9.35-2.16-3.98-1.22-7.66-3.14-10.42-6.36-1.07-1.25-1.86-2.77-2.66-4.23-.58-1.05-1.18-1.92-2.54-1.88-1.13,.03-1.97,.57-2.25,1.59-1.56,5.81-5.83,9.02-10.82,11.64-2.99,1.57-4.25,1.06-6.68-1.26-1.29-1.23-2.07-2.98-3.2-4.4-1.8-2.27-1.32-4.54-.1-6.78,1.75-3.2,4.3-5.79,6.75-8.44,2.35-2.54,4.98-4.91,6.9-7.76,1.99-2.96,4.57-3.88,7.79-3.86,5.21,.03,10.38,.52,15.25,2.46,1.99,.79,3.78,2.16,5.54,3.43,1.3,.93,2.76,1.04,3.72-.04,.93-1.06,.81-2.55-.36-3.6-3.8-3.43-8.32-5.29-13.34-6.09-4.18-.67-8.37-1.33-12.62-.94-4,.37-7.21,1.86-9.63,5.38-2.03,2.95-4.8,5.37-7.18,8.09-2.01,2.3-4.07,4.59-5.85,7.08-1.25,1.75-2.05,3.82-3.15,5.92-.54-.78-1.3-1.64-1.8-2.63-1.19-2.38-1.71-4.95-1.77-7.61-.01-.56,.14-1.17,.35-1.7,1.13-2.77,2.37-5.49,3.45-8.27,1.26-3.24,3.65-5.63,6.07-7.91,5.5-5.17,11.15-10.18,16.77-15.22,2.13-1.91,4.64-2.48,7.32-1.4,4.12,1.65,8.21,3.41,12.27,5.21,2.06,.92,4.03,2.05,6.05,3.05,1.27,.63,2.7,.21,3.32-.93,.65-1.19,.3-2.66-.94-3.31-6.36-3.33-12.74-6.64-19.62-8.81-4.11-1.3-7.89-.54-11.19,2.17-7.62,6.26-15.06,12.71-21.52,20.21-.35,.4-.68,.82-1.02,1.23-.1-.03-.21-.07-.31-.1,.35-1.79,.66-3.6,1.07-5.38,.82-3.55,1.68-7.09,2.55-10.63,.6-2.43,2.15-4.28,3.83-6.03,3.8-3.95,8.31-6.99,12.92-9.89,1.79-1.13,3.59-2.24,5.43-3.28,.4-.22,1.05-.28,1.48-.13,4.36,1.55,8.7,3.16,13.04,4.76,.27,.1,.54,.22,.82,.29,1.33,.33,2.64-.34,3.02-1.51,.43-1.34-.13-2.6-1.49-3.1-5.12-1.91-10.22-3.88-15.41-5.59-1.19-.39-2.73,.02-4.06,.32-3.05,.7-6.04,1.71-9.1,2.31-3.76,.74-7.57,.63-11.29-.29-2.92-.72-4.03-2.56-3.35-5.5,.38-1.65,1.07-3.24,1.72-4.81,.19-.45,.69-.84,1.14-1.1,5.5-3.25,11.5-5.16,17.74-6.27,3.36-.6,6.8-.81,10.21-1.09,.8-.07,1.63,.27,2.45,.42,2.43,.43,4.86,.88,7.3,1.29,1.22,.21,2.46,.33,3.68,.52,3.14,.49,5.34,2.23,6.62,5.11,1.55,3.5,2.99,7.04,4.62,10.51,2.14,4.55,4.26,9.13,6.69,13.52,1.11,2,2.8,3.75,4.49,5.32,2.9,2.71,6,5.21,9.04,7.77,2.12,1.79,4.06,3.69,4.76,6.5,.54,2.15,.29,4.19-.82,6.12-.18,.32-.36,.8-.24,1.09,1.38,3.43,.7,6.76-.45,10.04-.74,2.13-1.54,4.26-2.57,6.26-3.3,6.42-5.21,13.28-6.68,20.29-1.07,5.1-1.87,10.27-3.21,15.3-3.83,14.32-12.76,24.69-25.46,31.99-5.65,3.26-11.68,5.63-17.98,7.31-.35,.09-.7,.19-1.12,.31v1.42c0,34.43,0,68.86,0,103.29,0,5.81-3.95,9.77-9.74,9.77-87.05,0-174.09,0-261.14,0-5.86,0-9.8-3.94-9.8-9.83,0-33.37,0-66.74,.03-100.12,0-1.13-.33-1.52-1.4-1.82-10.48-2.9-20.04-7.57-28.11-14.99-8.39-7.72-13.53-17.24-15.62-28.44-1.5-8.06-2.94-16.16-5.72-23.9-1.32-3.66-3.21-7.11-4.63-10.73-.92-2.36-1.54-4.85-2.15-7.32-.44-1.78-.07-3.54,.48-5.27,.13-.39,.12-.95-.08-1.3-1.72-3.09-1.55-6.15,.41-8.98,1.04-1.5,2.43-2.82,3.86-3.98,4.14-3.36,8.29-6.7,11.75-10.8,.72-.85,1.38-1.81,1.85-2.82,3.45-7.32,6.84-14.66,10.26-21.99,.4-.86,.83-1.7,1.3-2.53,1.65-2.95,4.48-3.76,7.55-4.13,2.14-.26,4.41-.09,6.39-.78,6.91-2.42,13.55-.62,20.21,.94,4.59,1.07,9,2.75,13.06,5.19,.61,.37,1.21,.99,1.49,1.64,.64,1.5,1.22,3.05,1.56,4.64,.54,2.56-.5,4.28-3.01,5.06-3.18,.99-6.51,1.14-9.76,.67-3.05-.44-6.01-1.43-9.03-2.12-1.67-.38-3.35-.69-5.04-.94-.47-.07-1.01,.09-1.48,.26-4.9,1.78-9.79,3.58-14.68,5.39-1.62,.6-2.3,1.91-1.75,3.34,.49,1.28,1.87,1.81,3.39,1.26,4.45-1.62,8.9-3.24,13.34-4.91,.69-.26,1.17-.18,1.8,.2,4.95,3.02,9.95,5.97,14.43,9.7,1.29,1.07,2.51,2.23,3.72,3.39,2.55,2.43,3.86,5.45,4.51,8.9,.75,3.97,1.79,7.89,2.68,11.83,.1,.44,.09,.9,.16,1.66-.9-1.07-1.58-1.91-2.3-2.71-5.88-6.52-12.47-12.28-19.16-17.95-2.19-1.86-4.51-3.28-7.42-3.67-1.75-.23-3.42-.04-5.07,.48-6.08,1.9-11.73,4.79-17.4,7.63-.65,.33-1.3,.67-1.94,1.01-1.44,.78-1.93,2.2-1.22,3.48,.67,1.21,2.1,1.54,3.54,.84,3.93-1.92,7.83-3.91,11.81-5.72,2.28-1.04,4.66-1.89,7.05-2.66,2.19-.71,4.33-.24,6.06,1.24,4.76,4.09,9.45,8.26,14.13,12.44,1.52,1.36,2.86,2.92,4.35,4.32,4.58,4.32,6.53,10.08,8.52,15.79,.35,1.02,.14,2.34-.11,3.45-.44,1.87-1.03,3.71-1.73,5.49-.34,.87-1.09,1.58-1.79,2.54-1.73-6.34-6.18-10.42-10.18-14.84-2.32-2.56-4.55-5.21-6.73-7.89-2.06-2.53-4.81-3.7-7.9-3.95-7.15-.57-14.15,.27-20.78,3.09-2.11,.9-3.98,2.4-5.83,3.8-1.34,1.01-1.42,2.58-.47,3.65,.99,1.11,2.46,1.07,3.77-.08,2.93-2.58,6.36-4.05,10.19-4.69,3.82-.64,7.63-1.35,11.52-1.02,1.19,.1,2.4,.33,3.51,.74,.78,.29,1.53,.87,2.09,1.5,2.59,2.91,5.11,5.88,7.65,8.84,2.04,2.38,4.16,4.7,6.1,7.16,1.5,1.89,2.47,4.05,2.09,6.58-.03,.21,0,.45-.11,.61-.93,1.44-1.85,2.88-2.85,4.27-.53,.73-1.15,1.42-1.84,2.01-1.78,1.55-3.61,2.13-5.95,.85-3.04-1.66-5.93-3.44-8.17-6.13-1.3-1.57-2.24-3.32-2.76-5.29-.29-1.11-.96-1.8-2.1-1.94-1.14-.14-2.07,.34-2.5,1.38-2.65,6.46-8.09,9.45-14.28,11.39-2.66,.84-5.46,1.25-8.21,1.8-1.48,.29-2.43,1.35-2.29,2.7,.14,1.35,1.25,2.34,2.67,2.16,7.65-.94,14.85-3.07,20.9-8.13,.56-.47,1.08-.98,1.58-1.51,.5-.52,.97-1.09,1.55-1.75Z"/><g id="_8P4bgV"><g><path d="M239.32,260.77c6.95,0,13.9-.01,20.86,0,3.05,0,5.91-.77,8.61-2.12,1.55-.77,2.84-1.86,3.88-3.26,.99-1.33,1.62-2.8,1.75-4.46,.49-6.17-.28-12.13-2.93-17.8-1.78-3.81-3.99-7.34-6.53-10.69-2.97-3.93-6.31-7.53-9.65-11.13-1.1-1.18-2.12-2.45-3.14-3.71-.63-.79-1.11-1.67-1.26-2.7-.19-1.36,.59-2.23,1.96-2.15,1,.06,1.92,.42,2.75,.93,1.48,.9,2.96,1.8,4.35,2.83,3.86,2.87,7.4,6.12,10.86,9.45,1.06,1.02,1.96,2.22,2.79,3.44,4.31,6.3,8.08,12.91,11.13,19.92,1.48,3.4,3.9,6.02,6.83,8.21,3.27,2.44,6.96,3.88,11.02,4.27,2.79,.27,5.55-.05,8.12-1.21,8.51-3.84,14.53-10.09,17.58-18.95,2.19-6.35,1.52-12.53-1.84-18.39-3.7-6.45-9.17-10.79-16-13.5-5.04-2.01-10.28-2.76-15.68-2.16-3.61,.4-7.06,1.42-10.21,3.26-1.3,.76-2.53,.81-3.89,.17-3.75-1.79-7.54-3.5-11.28-5.3-2.04-.98-3.96-2.19-5.73-3.61-.8-.64-1.52-1.39-2.24-2.13-.5-.52-.73-1.18-.69-1.92,.06-1.18,.9-2.12,2.07-2.26,1.21-.14,2.4-.04,3.55,.39,.42,.16,.84,.3,1.25,.49,1.51,.68,3.09,.94,4.73,.87,5.72-.22,11.44-.45,17.15-.66,4.88-.17,9.77-.21,14.65,.1,3.43,.22,6.84,.58,10.19,1.35,2.05,.47,4,1.21,5.85,2.21,4.94,2.67,9.33,6.04,13.02,10.26,3.18,3.64,5.76,7.67,7.28,12.31,1.37,4.19,1.71,8.45,1.03,12.81-.57,3.7-1.36,7.35-2.57,10.9-1.4,4.11-3.72,7.59-7.09,10.37-.77,.64-1.51,1.33-2.19,2.07-3.32,3.62-1.43,9.06,2.15,10.83,.81,.4,1.66,.65,2.57,.65,7.12,.04,14.24,.1,21.36,.11,5.72,0,11.44-.1,17.16-.09,2.43,0,4.86,.14,7.28,.33,4.19,.34,7.21,3.43,7.71,7.62,.89,7.37,.81,14.76,.5,22.16-.16,3.85-.39,7.7-.73,11.53-.29,3.16-.76,6.31-1.22,9.46-.29,1.98-.71,3.95-1.09,5.92-.25,1.3-.88,2.4-1.87,3.29-1.8,1.61-4.14,1.19-5.26-.95-.46-.88-.68-1.83-.67-2.82,.09-7.34,.16-14.68,.27-22.03,.07-4.35,.2-8.71,.3-13.06,.04-1.82-.13-3.62-.61-5.39-.63-2.32-2.04-4-4.19-5.05-1.65-.8-3.41-1.22-5.2-1.52-6.48-1.09-13.02-1.61-19.59-1.5-3.15,.05-6.3,.32-9.45,.49-.11,0-.22,.03-.33,.05-2.82,.51-4.02,2.43-3.2,5.21,.47,1.6,1.1,3.16,1.54,4.77,.73,2.66,1.38,5.34,2.04,8.02,.38,1.54,.77,3.09,1.03,4.65,.72,4.41,.72,8.83,.01,13.25-1.46,9.11-5.46,16.93-11.93,23.48-1.31,1.33-2.77,2.51-4.2,3.72-1.84,1.57-1.96,2.22-.56,4.22,4.95,7.1,9.92,14.18,14.87,21.28,2.28,3.28,4.53,6.57,6.76,9.88,1.52,2.27,2.64,4.72,3.16,7.42,.27,1.41,.36,2.82-.1,4.22-.74,2.27-2.75,2.99-4.78,1.7-.77-.49-1.36-1.15-1.85-1.9-2.62-4.02-5.25-8.04-7.85-12.07-5.13-7.95-10.24-15.91-15.38-23.86-.76-1.17-1.6-2.29-2.41-3.42-.81-1.13-1.88-1.54-3.22-1.11-.69,.22-1.38,.47-2.01,.8-.9,.47-1.2,1.19-.88,2.18,.28,.87,.65,1.73,1.07,2.54,1.63,3.12,3.39,6.16,4.92,9.33,3.98,8.21,7.06,16.75,9.27,25.6,.47,1.89,.88,3.8,1.26,5.72,.14,.68,.13,1.39,.15,2.08,.01,.3-.03,.61-.07,.92-.4,2.69-2.66,3.92-5.14,2.81-1.06-.48-1.82-1.26-2.35-2.29-.73-1.42-1.26-2.91-1.7-4.45-1.66-5.88-3.48-11.71-5.67-17.41-1.89-4.92-3.94-9.78-6.35-14.47-.2-.39-.46-.78-.78-1.06-.53-.47-1.12-.28-1.27,.41-.13,.62-.15,1.27-.12,1.91,.19,3.51,.4,7.02,.62,10.53,.28,4.63,.33,9.26,.18,13.9-.14,4.07-.35,8.14-.56,12.21-.07,1.37-.33,2.71-.79,4.01-.74,2.07-2.34,3.27-4.45,3.33-2.01,.05-3.75-1.09-4.57-3.06-.66-1.59-.91-3.28-1.01-4.98-.48-8.17-.5-16.35-.32-24.53,.08-3.82,.29-7.64,.43-11.46,.02-.41-.04-.83-.1-1.24-.05-.38-.23-.71-.63-.8-.41-.1-.7,.16-.92,.46-.26,.36-.5,.74-.69,1.14-2.34,4.7-4.28,9.57-6.18,14.46-2.08,5.34-3.68,10.82-5.35,16.29-.37,1.23-.77,2.45-1.17,3.67-.41,1.23-1.16,2.21-2.18,3-1.01,.79-2.16,1.01-3.4,.76-.91-.18-1.53-.76-1.96-1.56-.73-1.34-.84-2.76-.54-4.23,2.07-10.27,5.21-20.18,9.64-29.69,1.78-3.82,3.85-7.49,5.84-11.21,.42-.78,.76-1.62,1.04-2.46,.37-1.11,.04-1.92-1.01-2.44-.67-.34-1.39-.6-2.11-.77-.96-.23-1.86,0-2.51,.77-.68,.81-1.36,1.63-1.94,2.51-3.56,5.48-7.08,10.98-10.62,16.46-4.44,6.87-8.9,13.72-13.34,20.58-.57,.88-1.25,1.65-2.17,2.17-.41,.23-.86,.42-1.31,.51-1.39,.26-2.47-.33-3.07-1.61-.44-.93-.56-1.92-.52-2.94,.08-2.21,.68-4.29,1.65-6.27,1.08-2.21,2.42-4.27,3.82-6.29,6.47-9.27,12.94-18.54,19.41-27.81,.3-.43,.6-.88,.82-1.36,.44-.94,.32-1.56-.44-2.26-.82-.76-1.67-1.49-2.52-2.21-7.8-6.63-12.49-15.05-14.28-25.08-1.1-6.15-.78-12.29,.81-18.34,.89-3.37,1.75-6.74,2.65-10.11,.21-.78,.52-1.53,.78-2.3,.26-.8,.44-1.61,.4-2.46-.07-1.39-.7-2.44-2.02-2.89-.97-.33-2-.58-3.01-.64-3.2-.19-6.41-.38-9.62-.37-6.43,.01-12.82,.52-19.16,1.67-1.29,.24-2.55,.59-3.75,1.14-2.75,1.26-4.41,3.37-4.82,6.37-.17,1.27-.31,2.56-.29,3.83,.11,9.35,.27,18.7,.4,28.06,.03,2.46,.03,4.91,.03,7.37,0,.93-.19,1.83-.54,2.69-.83,2.03-2.76,2.69-4.67,1.61-1.18-.67-1.94-1.69-2.31-2.97-.4-1.39-.72-2.81-.99-4.23-.69-3.57-1.02-7.18-1.38-10.79-.23-2.28-.5-4.55-.66-6.83-.2-2.84-.39-5.68-.44-8.53-.1-4.83-.12-9.66,.23-14.48,.12-1.61,.2-3.23,.4-4.84,.28-2.13,1.07-4.04,2.68-5.54,1.43-1.32,3.18-1.96,5.06-2.22,1.52-.21,3.06-.32,4.59-.33,6.39-.04,12.79-.01,19.18-.01,0,0,0,.02,0,.02Zm59.86,72.66c21.09-.31,37.03-17.87,36.86-37.81-.17-19.82-16.26-37.57-38.19-37.16-22.4,.42-37.07,18.86-36.89,37.86,.2,20.73,17.5,37.62,38.21,37.11Z"/><path d="M303.17,240.47c-10.64,.02-19.21-8.55-19.22-19.2,0-10.6,8.55-19.12,19.17-19.18,10.35-.06,19.28,8.38,19.26,19.18-.02,10.68-8.52,19.19-19.21,19.21Zm-12.64-24.29h-.1c.15,1.76,.24,3.51,.46,5.25,.31,2.39,1,4.69,2.18,6.81,.67,1.22,1.55,2.25,2.72,3.02,1.43,.94,2.97,1.65,4.64,2.06,1.7,.41,3.43,.53,5.14,.15,3.56-.78,6.6-2.49,9.09-5.17,.69-.74,1.04-1.62,1.13-2.64,.17-1.93,.05-3.85-.29-5.75-.6-3.36-2.2-6.13-5.05-8.07-1.12-.77-2.33-1.43-3.56-2.01-1.58-.75-3.3-1.03-5.05-.94-3.33,.15-6.49,1.01-9.56,2.26-1.15,.47-1.75,1.34-1.75,2.59,0,.81,0,1.62,0,2.43Z"/><path d="M221.21,286.47c0-1.61-.01-3.65,0-5.68,.01-1.05,.25-2.05,.79-2.96,.84-1.44,2.12-2.09,3.62-1.87,.68,.1,1.26,.42,1.79,.85,1.35,1.11,2,2.6,2.13,4.3,.36,4.81,.72,9.62,1.03,14.43,.3,4.62,.56,9.24,.8,13.87,.15,2.9,.4,5.79,.2,8.69-.08,1.22-.51,2.28-1.33,3.17-1.4,1.53-3.46,1.41-4.67-.27-1.1-1.54-1.78-3.28-2.32-5.07-.8-2.65-1.27-5.38-1.38-8.14-.18-4.46-.26-8.92-.39-13.38-.08-2.51-.18-5.01-.29-7.95Z"/><path d="M373.48,287.31c0,.22,0,.45,0,.67,.06,4.6-.19,9.2-.33,13.79-.08,2.51-.15,5.02-.37,7.52-.29,3.26-.89,6.47-2.31,9.45-.39,.83-.85,1.64-1.4,2.37-1.23,1.62-3.14,1.66-4.54,.17-.94-1-1.42-2.22-1.4-3.57,.02-2.29,.09-4.57,.21-6.86,.18-3.43,.41-6.85,.62-10.27,.26-4.26,.5-8.52,.78-12.78,.15-2.34,.35-4.67,.54-7.01,.13-1.61,.84-2.94,2.09-3.96,2.02-1.66,4.53-1.04,5.58,1.35,.42,.96,.6,1.97,.61,3.01,0,1.03,0,2.06,0,3.1,0,1,0,2.01,0,3.01h-.06Z"/><path d="M360.92,286.22c-.06,2.46-.12,4.91-.19,7.37-.11,4.27-.2,8.54-.34,12.8-.11,3.27-.32,6.53-1.33,9.67-.3,.95-.7,1.88-1.15,2.78-.24,.48-.64,.93-1.07,1.26-1.1,.87-2.48,.37-2.76-1.01-.16-.81-.2-1.67-.16-2.49,.23-4.54,.52-9.08,.76-13.63,.31-5.57,.58-11.15,.89-16.72,.13-2.42,.29-4.85,.5-7.27,.06-.68,.24-1.39,.55-1.99,.85-1.66,2.52-1.73,3.6-.23,.45,.63,.72,1.32,.72,2.1,0,2.45,0,4.91,0,7.36-.01,0-.02,0-.03,0Z"/><path d="M235.16,295.51c-.15-4.77-.33-9.54-.44-14.31-.03-1.08,.1-2.17,.26-3.24,.13-.86,.66-1.53,1.42-1.98,.87-.5,1.76-.35,2.4,.43,.43,.53,.75,1.12,.8,1.81,.23,3.12,.47,6.23,.67,9.35,.18,2.78,.32,5.57,.46,8.36,.15,2.81,.26,5.63,.42,8.44,.21,3.79,.46,7.58,.67,11.36,.05,.89,.04,1.79,0,2.68-.05,.91-.34,1.73-1.33,2.02-.98,.28-1.68-.25-2.23-.97-.33-.44-.59-.94-.82-1.45-1.23-2.77-1.71-5.7-1.81-8.71-.15-4.16-.32-8.31-.48-12.46-.02-.45,0-.89,0-1.34,0,0,0,0,.01,0Z"/><path d="M252.51,312.31c-.03,.75-.05,2-.16,3.25-.09,.98-.56,1.81-1.3,2.46-1,.88-2.1,.75-2.86-.35-.93-1.33-1.33-2.87-1.68-4.43-.37-1.64-.45-3.32-.5-4.99-.17-6.39-.33-12.78-.49-19.17-.07-2.79-.14-5.58-.17-8.37,0-.75,.1-1.5,.17-2.25,.02-.22,.09-.44,.17-.64,.67-1.65,2.35-1.94,3.53-.62,.6,.68,.84,1.5,.93,2.37,.11,1.14,.22,2.28,.31,3.42,.35,4.81,.69,9.63,1.02,14.44,.33,4.79,.65,9.57,1.02,14.87Z"/><path d="M350.34,286.94c0,2.32,.05,4.63-.01,6.95-.14,5.1-.29,10.21-.52,15.31-.08,1.89-.15,3.81-.81,5.61-.35,.96-.76,1.93-1.29,2.8-.75,1.23-1.89,1.3-2.94,.3-.79-.75-1.23-1.67-1.24-2.75-.02-1.87-.04-3.74,.06-5.61,.21-3.73,.5-7.46,.76-11.19,.18-2.56,.36-5.12,.54-7.68,.15-2.23,.29-4.46,.47-6.68,.14-1.7,.32-3.39,.52-5.08,.09-.77,.48-1.43,1.03-1.96,1-.97,2.34-.78,3.02,.45,.41,.75,.59,1.56,.58,2.41,0,2.37,0,4.74,0,7.12-.05,0-.11,0-.16,0Z"/><path d="M276,211.74c-.8-.23-1.65-.35-2.39-.7-1.3-.63-2.6-1.31-3.79-2.12-4.29-2.92-8.53-5.91-12.79-8.88-.46-.32-.91-.65-1.33-1.01-1.07-.93-1.32-2.23-.65-3.48,.21-.39,.48-.76,.79-1.07,.89-.91,1.95-1.17,3.13-.64,.61,.27,1.2,.6,1.76,.96,3.74,2.44,7.46,4.9,11.19,7.36,1.58,1.04,3.16,2.09,4.75,3.14,.8,.53,1.48,1.19,1.91,2.06,.42,.85,.48,1.71,.11,2.59-.47,1.11-1.35,1.66-2.68,1.78Z"/><path d="M266.95,297.28c-.09-5.89,.89-11.01,3.22-15.82,4.17-8.63,10.99-14.04,20.26-16.36,3.29-.83,6.64-1.25,10.04-1,7.51,.57,14.29,2.95,19.91,8.12,4.86,4.47,7.86,10.02,9.26,16.44,1.52,7.01,1.02,13.9-1.79,20.51-4.04,9.49-11.19,15.37-21.17,17.87-2.33,.58-4.72,.96-7.12,.97-15.47,.07-27.91-8.76-31.63-23.84-.6-2.45-.97-5.28-.98-6.89Zm32.76,22.67c.91-.12,2.64-.24,4.33-.6,7.46-1.59,12.91-5.8,16.01-12.8,3.01-6.78,2.97-13.68,.06-20.48-2.55-5.94-6.96-10.02-13.09-12.17-4.25-1.49-8.6-1.84-13.03-.96-7.79,1.54-13.37,5.9-16.53,13.22-2.06,4.77-2.49,9.75-1.53,14.85,2.03,10.77,10.48,18.72,23.78,18.94Z"/><path d="M312.2,220.96c.12,4.58-3.67,8.5-8.49,8.54-4.66,.04-8.5-3.85-8.5-8.55,0-4.71,3.8-8.49,8.52-8.53,4.43-.03,8.62,3.72,8.47,8.54Zm-9.86,3.43c.11,0,.23,0,.33-.03,1.4-.36,2.65-1.02,3.74-1.97,.37-.32,.54-.78,.55-1.27,.03-1.57-1.24-3.3-2.74-3.76-1.95-.6-3.7,.49-3.99,2.52-.19,1.34,.26,2.59,.78,3.79,.23,.52,.73,.75,1.32,.72Z"/><path d="M299.39,314.91c-2.94-.02-5.52-.43-7.97-1.48-3.98-1.7-6.9-4.52-8.68-8.43-2.7-5.96-2.68-11.98,.23-17.86,2.68-5.4,7.19-8.38,13.15-9.17,2.68-.36,5.34-.21,7.97,.49,4.85,1.31,8.52,4.16,10.75,8.64,3.14,6.31,3.13,12.72-.2,18.96-2.64,4.96-6.93,7.73-12.46,8.6-.39,.06-.77,.12-1.16,.15-.64,.05-1.28,.07-1.63,.09Zm-.17-6.78c1.07-.16,2.17-.23,3.21-.51,4.14-1.09,6.9-3.64,7.98-7.85,.4-1.55,.45-3.14,.28-4.74-.42-3.94-2.34-6.9-5.88-8.67-3.57-1.79-7.27-1.85-10.93-.26-3.23,1.4-5.24,3.89-6.06,7.33-.32,1.35-.39,2.71-.28,4.08,.34,4.45,2.51,7.66,6.61,9.5,1.6,.71,3.3,1.03,5.06,1.13Z"/><path d="M294.04,296.56c.02-3.04,2.25-5.27,5.23-5.23,2.92,.04,5.14,2.39,5.11,5.4-.03,3.04-2.16,5.14-5.21,5.13-3.02,0-5.15-2.21-5.13-5.3Z"/></g></g><g><g><path d="M232.94,425.04c2.81,0,5.31,.78,7.48,2.33,2.18,1.55,3.85,3.63,5.03,6.23,1.18,2.6,1.77,5.43,1.77,8.47s-.58,5.9-1.73,8.53c-1.16,2.62-2.79,4.7-4.9,6.23-2.11,1.53-4.56,2.3-7.33,2.3-3.46,0-6.65-1.43-9.59-4.28v3.78h-16.12v-7.56h5.69v-31.99h-5.69v-7.53h16.12v18.03c2.64-3.02,5.74-4.53,9.28-4.53Zm-2.87,25.96c2,0,3.57-.83,4.7-2.48,1.14-1.66,1.7-3.86,1.7-6.61s-.57-4.81-1.7-6.23c-1.14-1.43-2.68-2.14-4.64-2.14s-3.64,.81-4.8,2.44c-1.16,1.62-1.73,3.78-1.73,6.47,0,2.52,.59,4.58,1.77,6.17,1.18,1.59,2.74,2.39,4.7,2.39Z"/><path d="M273.45,451.06v7.56h-20.28v-7.56h5v-17.59h-5v-7.69h15.4v25.27h4.87Zm-4.22-34.62c0,1.67-.57,3.05-1.7,4.14-1.14,1.09-2.48,1.64-4.05,1.64s-2.94-.57-4.08-1.7c-1.14-1.14-1.7-2.49-1.7-4.08s.57-2.91,1.7-4.05,2.49-1.7,4.08-1.7,2.91,.57,4.05,1.7c1.14,1.14,1.7,2.48,1.7,4.05Z"/><path d="M305.63,425.04c2.81,0,5.31,.78,7.48,2.33,2.18,1.55,3.85,3.63,5.03,6.23,1.18,2.6,1.77,5.43,1.77,8.47s-.58,5.9-1.73,8.53c-1.16,2.62-2.79,4.7-4.91,6.23-2.11,1.53-4.56,2.3-7.33,2.3-3.46,0-6.65-1.43-9.59-4.28v3.78h-16.12v-7.56h5.69v-31.99h-5.69v-7.53h16.12v18.03c2.64-3.02,5.74-4.53,9.28-4.53Zm-2.87,25.96c2,0,3.57-.83,4.7-2.48,1.13-1.66,1.7-3.86,1.7-6.61s-.57-4.81-1.7-6.23c-1.14-1.43-2.68-2.14-4.64-2.14s-3.64,.81-4.8,2.44c-1.16,1.62-1.73,3.78-1.73,6.47,0,2.52,.59,4.58,1.77,6.17,1.18,1.59,2.74,2.39,4.7,2.39Z"/><path d="M343.9,451.06v7.56h-20.28v-7.56h5.12v-31.99h-5.12v-7.53h15.62v39.52h4.66Z"/><path d="M371.8,451.06v7.56h-20.28v-7.56h5v-17.59h-5v-7.69h15.4v25.27h4.87Zm-4.22-34.62c0,1.67-.57,3.05-1.7,4.14-1.14,1.09-2.48,1.64-4.05,1.64s-2.94-.57-4.08-1.7c-1.14-1.14-1.7-2.49-1.7-4.08s.57-2.91,1.7-4.05,2.49-1.7,4.08-1.7,2.91,.57,4.05,1.7c1.14,1.14,1.7,2.48,1.7,4.05Z"/><path d="M409.54,442.19c0,3.27-.77,6.22-2.31,8.84-1.54,2.62-3.62,4.68-6.25,6.15-2.62,1.48-5.51,2.22-8.65,2.22-3.33,0-6.31-.74-8.94-2.22-2.62-1.48-4.67-3.53-6.14-6.15-1.47-2.62-2.2-5.57-2.2-8.84s.75-6.18,2.26-8.78c1.51-2.6,3.59-4.65,6.23-6.14,2.64-1.49,5.57-2.23,8.78-2.23s6.22,.75,8.84,2.23c2.62,1.49,4.68,3.54,6.15,6.14,1.48,2.6,2.22,5.53,2.22,8.78Zm-17.28,9.06c2.04,0,3.64-.8,4.8-2.39,1.16-1.59,1.73-3.88,1.73-6.86,0-2.79-.58-4.97-1.73-6.55-1.16-1.57-2.78-2.36-4.86-2.36s-3.7,.78-4.78,2.33c-1.08,1.55-1.62,3.89-1.62,7.01,0,2.65,.59,4.78,1.77,6.39,1.18,1.61,2.74,2.42,4.7,2.42Z"/></g><g><path d="M227.5,494.77c0,3.06-.71,5.93-2.12,8.59-1.42,2.67-3.35,4.77-5.8,6.31-2.45,1.54-5.16,2.31-8.14,2.31-4.39,0-8.24-1.69-11.53-5.06v13.06h6.4v5.75h-18.81v-5.75h5.94v-36.02h-5.5v-5.78h11.97v5.25c1.62-1.92,3.42-3.34,5.37-4.28,1.96-.94,4.05-1.41,6.28-1.41,3.1,0,5.86,.77,8.28,2.3,2.42,1.53,4.3,3.6,5.64,6.2,1.34,2.6,2.02,5.45,2.02,8.53Zm-16.15,11.31c1.79,0,3.41-.52,4.84-1.56,1.44-1.04,2.56-2.46,3.37-4.25,.81-1.79,1.22-3.69,1.22-5.69s-.45-3.88-1.34-5.58c-.9-1.7-2.12-3.05-3.69-4.06-1.56-1.01-3.32-1.52-5.28-1.52s-3.87,.54-5.5,1.61c-1.62,1.07-2.89,2.49-3.78,4.26-.9,1.77-1.34,3.72-1.34,5.84,0,3.42,1.08,6.09,3.23,8.03,2.16,1.94,4.91,2.91,8.26,2.91Z"/><path d="M265.55,494.64c0,3.19-.76,6.1-2.28,8.75-1.52,2.65-3.59,4.74-6.22,6.28-2.62,1.54-5.53,2.31-8.72,2.31s-6.26-.77-8.9-2.31c-2.65-1.54-4.7-3.63-6.17-6.28-1.47-2.64-2.2-5.56-2.2-8.75s.73-6.31,2.2-8.94c1.47-2.62,3.51-4.68,6.14-6.17,2.62-1.49,5.6-2.23,8.94-2.23s6.15,.79,8.78,2.36c2.62,1.57,4.69,3.68,6.19,6.33,1.5,2.65,2.25,5.53,2.25,8.65Zm-17.21,11.06c1.92,0,3.68-.5,5.28-1.5,1.6-1,2.85-2.34,3.75-4.03,.9-1.69,1.34-3.53,1.34-5.53s-.45-3.78-1.34-5.47c-.9-1.69-2.15-3.05-3.75-4.08-1.6-1.03-3.38-1.55-5.34-1.55s-3.68,.51-5.28,1.52c-1.6,1.01-2.86,2.37-3.78,4.08-.92,1.71-1.37,3.54-1.37,5.5s.46,3.79,1.37,5.5c.92,1.71,2.19,3.06,3.81,4.06,1.62,1,3.39,1.5,5.31,1.5Z"/><path d="M285.2,505.26v5.75h-17.28v-5.75h5.81v-35.65h-5.81v-5.69h12.28v41.33h5Z"/><path d="M305.42,505.26v5.75h-16.59v-5.75h5.12v-21.31h-5.12v-5.78h11.59v27.09h5Zm-12.22-31.37l4.81-10.75h9.34l-9.75,10.75h-4.41Z"/><path d="M324.41,478.18v5.78h-6v17.21c0,1.79,.19,2.95,.58,3.48,.39,.53,1.05,.8,1.98,.8,1.15,0,2.29-.2,3.44-.59v5.84c-2,.58-3.61,.87-4.84,.87-2.71,0-4.66-.68-5.84-2.05-1.19-1.36-1.78-3.7-1.78-7.01v-18.56h-4.28v-5.78h4.28v-4.97l6.47-5.9v10.87h6Z"/><path d="M345.88,505.26v5.75h-16.59v-5.75h5.12v-21.31h-5.12v-5.78h11.59v27.09h5Zm-4.62-38.15c0,1.06-.39,1.98-1.16,2.75-.77,.77-1.69,1.16-2.75,1.16s-1.97-.39-2.72-1.16c-.75-.77-1.12-1.69-1.12-2.75s.37-1.98,1.12-2.75c.75-.77,1.66-1.16,2.72-1.16s2.03,.37,2.78,1.12,1.12,1.68,1.12,2.78Z"/><path d="M372.5,480.55v-2.37h5.75v12.43h-5.75c-.25-2.39-1.21-4.22-2.87-5.48-1.67-1.26-3.59-1.89-5.78-1.89-1.87,0-3.56,.5-5.05,1.5-1.49,1-2.64,2.35-3.45,4.06-.81,1.71-1.22,3.57-1.22,5.59,0,3.44,.92,6.24,2.75,8.42,1.83,2.18,4.25,3.26,7.25,3.26,4.64,0,7.92-2.16,9.84-6.47l5.37,2.56c-3.02,6.54-8.19,9.81-15.5,9.81-3.27,0-6.18-.77-8.72-2.31-2.54-1.54-4.5-3.66-5.89-6.34-1.39-2.69-2.08-5.67-2.08-8.94s.7-6.12,2.11-8.75c1.41-2.62,3.34-4.67,5.8-6.14,2.46-1.47,5.2-2.2,8.22-2.2,3.58,0,6.65,1.08,9.22,3.25Z"/><path d="M409.99,489.77v15.5h5.5v5.75h-11.18v-4.03c-3.12,3.06-6.6,4.59-10.43,4.59-2.02,0-3.87-.47-5.55-1.41-1.68-.94-3.02-2.19-4.03-3.76-1.01-1.57-1.52-3.32-1.52-5.23,0-2.06,.56-3.9,1.67-5.51,1.11-1.61,2.62-2.86,4.51-3.73,1.9-.87,3.8-1.31,5.72-1.31,3.21,0,6.2,.94,8.97,2.81v-3.53c0-2.56-.54-4.39-1.62-5.5-1.08-1.1-2.86-1.66-5.34-1.66-1.75,0-3.21,.32-4.39,.95-1.18,.64-2.15,1.6-2.92,2.89l-6.19-1.53c1.4-2.6,3.28-4.55,5.65-5.83,2.37-1.28,5.2-1.92,8.47-1.92,4.39,0,7.61,1,9.64,3s3.05,5.15,3.05,9.47Zm-15.25,16.84c3.17,0,6.13-1.32,8.9-3.97v-3.84c-2.81-2.19-5.62-3.28-8.44-3.28-1.71,0-3.18,.54-4.42,1.61-1.24,1.07-1.86,2.42-1.86,4.05s.54,2.86,1.62,3.89c1.08,1.03,2.48,1.55,4.19,1.55Z"/></g></g></svg>