<svg viewBox="0 0 575.01 82.42" fill="currentColor" class="h-full w-full"><title>Bibliopolítica</title><path d="M33.42,18.87c3.7,0,6.98,1.02,9.84,3.06,2.86,2.04,5.07,4.78,6.62,8.2,1.55,3.43,2.32,7.14,2.32,11.14s-.76,7.77-2.28,11.22c-1.52,3.45-3.67,6.19-6.45,8.2-2.78,2.01-6,3.02-9.64,3.02-4.55,0-8.76-1.88-12.62-5.63v4.97H0v-9.95H7.48V11.02H0V1.11H21.21V24.83c3.48-3.97,7.55-5.96,12.21-5.96Zm-3.78,34.16c2.63,0,4.69-1.09,6.19-3.27,1.49-2.18,2.24-5.08,2.24-8.69s-.75-6.32-2.24-8.2c-1.49-1.88-3.53-2.82-6.1-2.82s-4.79,1.07-6.31,3.21c-1.52,2.14-2.28,4.97-2.28,8.51,0,3.32,.77,6.02,2.32,8.12,1.55,2.1,3.61,3.14,6.19,3.14Z"/><path d="M86.73,53.11v9.95h-26.68v-9.95h6.58V29.97h-6.58v-10.11h20.27V53.11h6.41Zm-5.55-45.55c0,2.19-.75,4.01-2.24,5.45-1.49,1.44-3.27,2.16-5.32,2.16s-3.87-.75-5.36-2.24c-1.49-1.49-2.24-3.28-2.24-5.36s.75-3.83,2.24-5.32c1.49-1.49,3.28-2.24,5.36-2.24s3.83,.75,5.32,2.24c1.49,1.49,2.24,3.27,2.24,5.32Z"/><path d="M129.06,18.87c3.7,0,6.98,1.02,9.84,3.06,2.86,2.04,5.07,4.78,6.62,8.2,1.55,3.43,2.32,7.14,2.32,11.14s-.76,7.77-2.28,11.22c-1.52,3.45-3.67,6.19-6.45,8.2-2.78,2.01-6,3.02-9.64,3.02-4.55,0-8.76-1.88-12.62-5.63v4.97h-21.21v-9.95h7.48V11.02h-7.48V1.11h21.21V24.83c3.48-3.97,7.55-5.96,12.21-5.96Zm-3.78,34.16c2.63,0,4.69-1.09,6.19-3.27,1.49-2.18,2.24-5.08,2.24-8.69s-.75-6.32-2.24-8.2c-1.49-1.88-3.53-2.82-6.1-2.82s-4.79,1.07-6.31,3.21c-1.52,2.14-2.28,4.97-2.28,8.51,0,3.32,.77,6.02,2.32,8.12,1.55,2.1,3.61,3.14,6.19,3.14Z"/><path d="M179.42,53.11v9.95h-26.68v-9.95h6.74V11.02h-6.74V1.11h20.55V53.11h6.12Z"/><path d="M216.12,53.11v9.95h-26.68v-9.95h6.58V29.97h-6.58v-10.11h20.27V53.11h6.41Zm-5.55-45.55c0,2.19-.75,4.01-2.24,5.45-1.49,1.44-3.27,2.16-5.32,2.16s-3.87-.75-5.36-2.24c-1.49-1.49-2.24-3.28-2.24-5.36s.75-3.83,2.24-5.32c1.49-1.49,3.28-2.24,5.36-2.24s3.83,.75,5.32,2.24c1.49,1.49,2.24,3.27,2.24,5.32Z"/><path d="M265.77,41.43c0,4.3-1.01,8.18-3.04,11.63-2.03,3.45-4.77,6.15-8.22,8.1-3.45,1.95-7.25,2.92-11.39,2.92-4.38,0-8.3-.97-11.76-2.92-3.45-1.95-6.15-4.64-8.08-8.1-1.93-3.45-2.9-7.33-2.9-11.63s.99-8.12,2.98-11.55c1.99-3.43,4.72-6.12,8.2-8.08,3.48-1.96,7.33-2.94,11.55-2.94s8.18,.98,11.63,2.94c3.45,1.96,6.15,4.65,8.1,8.08,1.95,3.43,2.92,7.28,2.92,11.55Zm-22.73,11.92c2.69,0,4.79-1.05,6.31-3.14,1.52-2.1,2.28-5.1,2.28-9.02,0-3.67-.76-6.54-2.28-8.61-1.52-2.07-3.65-3.1-6.39-3.1s-4.86,1.02-6.29,3.06c-1.43,2.04-2.14,5.12-2.14,9.23,0,3.48,.77,6.28,2.32,8.41,1.55,2.12,3.61,3.19,6.19,3.19Z"/><path d="M327.67,41.68c0,4.03-.93,7.8-2.8,11.3-1.86,3.51-4.41,6.28-7.63,8.3-3.22,2.03-6.79,3.04-10.71,3.04-5.78,0-10.84-2.22-15.17-6.66v17.18h8.43v7.56h-24.75v-7.56h7.81V27.46h-7.23v-7.6h15.74v6.91c2.14-2.52,4.49-4.4,7.07-5.63,2.58-1.23,5.33-1.85,8.26-1.85,4.08,0,7.71,1.01,10.89,3.02,3.18,2.01,5.65,4.73,7.42,8.16,1.77,3.43,2.65,7.17,2.65,11.22Zm-21.25,14.88c2.36,0,4.48-.68,6.37-2.06,1.89-1.37,3.37-3.23,4.44-5.59,1.07-2.36,1.6-4.85,1.6-7.48s-.59-5.1-1.77-7.34c-1.18-2.23-2.8-4.01-4.85-5.34-2.06-1.33-4.37-1.99-6.95-1.99s-5.1,.71-7.23,2.12c-2.14,1.41-3.8,3.28-4.97,5.61-1.18,2.33-1.77,4.89-1.77,7.69,0,4.49,1.42,8.02,4.25,10.56,2.84,2.55,6.46,3.82,10.87,3.82Z"/><path d="M377.74,41.52c0,4.19-1,8.03-3,11.51-2,3.48-4.73,6.23-8.18,8.26-3.45,2.03-7.28,3.04-11.47,3.04s-8.23-1.01-11.71-3.04c-3.48-2.03-6.19-4.78-8.12-8.26-1.93-3.48-2.9-7.32-2.9-11.51s.97-8.3,2.9-11.76c1.93-3.45,4.62-6.16,8.08-8.12,3.45-1.96,7.37-2.94,11.76-2.94s8.1,1.03,11.55,3.1c3.45,2.07,6.17,4.84,8.14,8.32,1.97,3.48,2.96,7.28,2.96,11.39Zm-22.65,14.55c2.52,0,4.84-.66,6.95-1.97,2.11-1.32,3.75-3.08,4.93-5.3,1.18-2.22,1.77-4.64,1.77-7.28s-.59-4.97-1.77-7.19c-1.18-2.22-2.82-4.01-4.93-5.36-2.11-1.36-4.45-2.03-7.03-2.03s-4.84,.66-6.95,1.99c-2.11,1.33-3.77,3.12-4.97,5.36-1.21,2.25-1.81,4.66-1.81,7.23s.6,4.99,1.81,7.23c1.21,2.25,2.88,4.03,5.01,5.34,2.14,1.32,4.47,1.97,6.99,1.97Z"/><path d="M403.6,55.49v7.56h-22.73v-7.56h7.65V8.59h-7.65V1.11h16.15V55.49h6.58Z"/><path d="M430.19,55.49v7.56h-21.83v-7.56h6.74V27.46h-6.74v-7.6h15.25V55.49h6.58Zm-16.07-41.27L420.45,.08h12.29l-12.82,14.14h-5.8Z"/><path d="M455.19,19.85v7.6h-7.89v22.65c0,2.36,.25,3.88,.76,4.58,.51,.7,1.38,1.05,2.61,1.05,1.51,0,3.01-.26,4.52-.78v7.69c-2.63,.77-4.75,1.15-6.37,1.15-3.56,0-6.12-.9-7.69-2.69-1.56-1.79-2.34-4.87-2.34-9.23V27.46h-5.63v-7.6h5.63v-6.54l8.51-7.77v14.31h7.89Z"/><path d="M483.43,55.49v7.56h-21.83v-7.56h6.74V27.46h-6.74v-7.6h15.25V55.49h6.58Zm-6.08-50.19c0,1.4-.51,2.6-1.52,3.62-1.01,1.01-2.22,1.52-3.62,1.52s-2.59-.51-3.58-1.52c-.99-1.01-1.48-2.22-1.48-3.62s.49-2.6,1.48-3.62c.99-1.01,2.18-1.52,3.58-1.52s2.67,.49,3.66,1.48c.99,.99,1.48,2.21,1.48,3.66Z"/><path d="M518.45,22.98v-3.12h7.56v16.36h-7.56c-.33-3.15-1.59-5.56-3.78-7.21-2.19-1.66-4.73-2.49-7.6-2.49-2.47,0-4.68,.66-6.64,1.97-1.96,1.32-3.47,3.1-4.54,5.34-1.07,2.25-1.6,4.7-1.6,7.36,0,4.52,1.21,8.21,3.62,11.08,2.41,2.86,5.59,4.3,9.54,4.3,6.11,0,10.43-2.84,12.95-8.51l7.07,3.37c-3.97,8.61-10.77,12.91-20.39,12.91-4.3,0-8.13-1.01-11.47-3.04-3.34-2.03-5.93-4.81-7.75-8.34-1.82-3.54-2.73-7.45-2.73-11.76s.92-8.06,2.78-11.51c1.85-3.45,4.39-6.15,7.62-8.08,3.23-1.93,6.84-2.9,10.81-2.9,4.71,0,8.76,1.43,12.13,4.27Z"/><path d="M567.78,35.1v20.39h7.23v7.56h-14.72v-5.3c-4.11,4.03-8.69,6.04-13.73,6.04-2.66,0-5.09-.62-7.3-1.85-2.21-1.23-3.97-2.88-5.3-4.95-1.33-2.07-1.99-4.36-1.99-6.89,0-2.71,.73-5.13,2.2-7.26,1.47-2.12,3.45-3.76,5.94-4.91,2.49-1.15,5-1.73,7.52-1.73,4.22,0,8.15,1.23,11.8,3.7v-4.64c0-3.37-.71-5.78-2.14-7.23-1.42-1.45-3.77-2.18-7.03-2.18-2.3,0-4.23,.42-5.78,1.25-1.55,.84-2.83,2.1-3.84,3.8l-8.14-2.01c1.84-3.43,4.32-5.98,7.44-7.67,3.12-1.69,6.84-2.53,11.14-2.53,5.78,0,10.01,1.32,12.68,3.95,2.67,2.63,4.01,6.78,4.01,12.45Zm-20.06,22.16c4.17,0,8.07-1.74,11.71-5.22v-5.06c-3.7-2.88-7.4-4.32-11.1-4.32-2.25,0-4.19,.71-5.82,2.12-1.63,1.41-2.45,3.19-2.45,5.32s.71,3.76,2.14,5.12c1.42,1.36,3.26,2.03,5.51,2.03Z"/></svg>