<?xml version="1.0" encoding="UTF-8"?>
<svg id="Layer_1" fill="currentColor" class="h-full w-full" xmlns="http://www.w3.org/2000/svg" viewBox="0 0 531.56 522.23">
<path d="M0,291.68c3.19-13.77,9.29-26.51,14.03-39.74,3.54-9.87,9.59-18.04,16.03-26.05,1.31-1.63,3.07-2.58,5.09-3.14,7.77-2.14,15.52-4.3,23.28-6.48,.95-.27,1.88-.64,2.79-1.03,4.64-1.99,9.3-3.65,14.49-3.9,4.85-.23,9.3-2.12,13.06-5.37,1.89-1.63,4.15-2.46,6.63-2.59,2.93-.15,5.42-1.34,7.61-3.2,2-1.7,4-3.42,5.86-5.27,2.51-2.5,5.47-3.71,8.99-4,3.73-.31,7.44-.97,11.17-1.38,4.4-.48,7.64-2.99,9.86-6.44,3-4.66,7.35-6.46,12.42-7.48,2.79-.56,5.48-.14,8.22,.11,1.97,.18,3.95,.2,5.92,.21,1.55,0,3.1-.09,4.66-.17,5.6-.26,11.19-.57,16.79-.77,2.28-.08,4.57-.02,6.85,.1,3.4,.17,6.79,.52,10.2,.66,6.12,.26,9.69,3.61,10.3,9.75,.3,3,.57,6.01,1.03,9,.2,1.29,.59,2.66,1.27,3.75,3.95,6.28,7.82,12.65,13.01,18.01,2.77,2.87,5.96,5.35,8.89,8.08,2.97,2.76,5.96,5.51,8.75,8.44,5.44,5.72,10.75,11.56,16.1,17.36,.61,.67,1.18,1.38,1.74,2.09,1.78,2.27,2.1,4.75,1.01,7.42-1.38,3.35-3.26,6.35-5.87,8.91-.48,.47-1.12,1.5-.94,1.75,.39,.57,1.22,1.04,1.94,1.17,5.51,1.03,11.13,1.68,16.23,4.17,4.14,2.02,8.2,4.23,12.17,6.56,2.92,1.72,5.87,2.32,9.16,1.53,7.46-1.79,15.01-2.77,22.69-2.38,3.66,.19,7.3,.71,10.95,1,7.71,.61,15.33,1.74,22.78,3.88,9.47,2.71,18.4,6.61,26.61,12.09,1.58,1.05,3.25,1.97,4.88,2.93,3.62,2.15,5.37,5.09,4.56,9.47-1.6,8.6-3.05,17.23-4.53,25.86-.53,3.06-1.12,6.12-1.4,9.2-.13,1.44,.24,2.98,.69,4.38,.39,1.21,1.23,2.27,1.82,3.41,4.34,8.38,8.68,16.75,12.99,25.14,1.34,2.6,2.69,5.21,3.85,7.89,1.46,3.38,1.06,6.75-.61,9.98-3.89,7.55-8.07,14.96-11.61,22.66-3.12,6.79-7.99,12.37-11.79,18.67-1.37,2.27-2.49,4.71-3.57,7.14-.73,1.64-.84,3.4-.41,5.19,1.8,7.57,2.37,15.22,1.71,22.99-.51,5.9-1.05,11.77-2.71,17.48-.19,.66-.43,1.31-.69,1.94-.87,2.17-1.5,4.32-1.17,6.77,.34,2.52,.08,5.06-.84,7.52-.75,2.01,.04,3.14,2.17,3.26,2.54,.14,5.08,.3,7.63,.3,43.52,.02,87.03,.02,130.55,0,1.42,0,2.84-.14,4.26-.29,1.4-.15,2.24-1.06,2.37-2.46,.05-.56,.05-1.12,.05-1.68,0-10.19,0-20.38,0-30.57,0-3.11-.68-3.93-3.73-4.55-2.02-.41-4.05-.83-6.06-1.32-1.57-.38-2.79-1.28-3.62-2.72-4.1-7.19-8.19-14.38-12.32-21.55-3.31-5.76-6.73-11.45-9.97-17.24-3.92-7.01-9.16-12.93-14.85-18.5-2.47-2.41-5.07-4.68-7.58-7.05-1.96-1.86-3.41-4.07-4.58-6.52-1.99-4.15-4.06-8.27-6.25-12.32-5.57-10.26-11.09-20.56-16.89-30.69-5.55-9.69-11.51-19.14-17.14-28.78-3.06-5.25-5.78-10.69-8.72-16.01-3.09-5.59-6.3-11.12-10.88-15.67-1.43-1.42-3.06-2.66-4.64-3.93-2.57-2.09-3.52-4.72-2.68-7.94,.91-3.49,1.28-7.04,1.15-10.64-.1-2.81,1.05-4.89,3.37-6.57,3.35-2.42,6.53-5.07,9.76-7.65,2.52-2.02,5.08-4.01,7.5-6.14,2.52-2.22,5.1-4.43,7.26-6.99,1.33-1.58,2.28-3.7,2.78-5.73,1.34-5.48,2.37-11.05,2.41-16.73,.01-2.53-.03-5.08-.31-7.59-.35-3.16,.83-5.45,3.4-7.15,.68-.45,1.39-.87,2.06-1.34,1.22-.87,1.55-1.82,1.02-2.85-.79-1.53-2.41-2.42-3.66-1.91-.63,.25-1.22,.63-1.79,1.02-1.81,1.25-3.59,2.54-5.41,3.78-3.45,2.36-6.99,2.33-10.4,.03-5.22-3.52-10.28-7.27-15.55-10.72-2.69-1.76-5.56-3.34-8.55-4.52-3.93-1.55-5.47-4.28-5.7-8.32-.17-2.9-.8-5.79-1.44-8.64-.41-1.83-1.51-3.36-3.18-4.39-1.43-.88-2.78-1.89-4.22-2.76-3.35-2.02-4.33-5.08-3.9-8.76,.24-2.11,.29-4.16-.56-6.22-1.01-2.42-.76-4.92,.24-7.32,.8-1.92,.71-3.54-1.02-4.96-2.24-1.84-2.4-4.39-1.99-6.99,.68-4.3,1.52-8.57,2.2-12.87,1.32-8.3,2.57-16.62,3.87-24.92,.49-3.15,1.14-6.28,1.55-9.44,.59-4.54,.46-9.11,.29-13.69-.2-5.66-1.01-11.2-3.04-16.45-1.94-5.02-.17-8.92,2.63-12.97,2.93-4.25,6.83-7.8,8.99-12.6,1.61-3.57,3.34-7.07,4.27-10.93,1.25-5.16,3.56-7.18,9.25-7.61,6.39-.48,12.36-2.13,18.12-4.84,1.79-.84,3.69-1.45,5.58-2.04,2.12-.66,4.18-.43,6.06,.85,1.03,.7,2.15,1.33,3.06,2.16,3.56,3.24,7.26,2.59,11.14,.67,3.63-1.79,7.33-3.45,11.02-5.11,.85-.38,1.78-.56,2.68-.84,1.99,0,3.97,0,5.96,0,1.56,.21,3.13,.43,4.69,.64,5.19,.71,10.14,2.33,15.09,3.97,3.54,1.18,6.53,3.15,8.74,6.15,2.77,3.77,6.44,6.55,9.98,9.51,7.88,6.57,15.68,13.23,23.46,19.92,3.26,2.8,5.67,6.32,8.2,9.77,1.85,2.53,4.1,4.74,4.44,8.07v457.99c-.08,.19-.18,.38-.22,.58-.58,3.21-2.44,4.95-5.68,5.33-.63,.07-1.24,.2-1.87,.3H59.84c-.23-.09-.45-.21-.69-.25-3.39-.51-5.19-2.11-5.55-5.46-.29-2.69-.23-5.42-.23-8.14,0-34.26,.02-68.52,.03-102.79,0-.82-.02-1.64-.06-2.46-.09-1.91-.67-3.62-2.09-4.99-4.26-4.12-7.13-9.17-8.71-14.76-1.31-4.61-1.73-9.47-2.67-14.2-.82-4.13-1.55-8.31-2.8-12.32-1.42-4.55-3.47-8.89-5.1-13.38-1.56-4.32-3.54-8.53-4.14-13.16-.23-1.8-1.15-3.19-2.6-4.3-2.5-1.91-5.11-3.72-7.4-5.86-8.4-7.83-15.42-16.58-17.82-28.22v-.26Zm229.04,218.85c25.47,0,50.94,0,76.41,0,1.07,0,2.15-.08,3.22-.19,2.29-.24,2.82-1.15,1.7-3.19-4.17-7.59-8.28-15.22-12.64-22.71-3.79-6.52-7.74-12.96-11.87-19.27-3.73-5.7-7.81-11.17-11.72-16.74-7.02-9.99-13.84-20.12-21.09-29.93-8.09-10.96-16.44-21.74-24.91-32.43-8.6-10.85-17.46-21.5-26.24-32.21-1.25-1.53-2.52-3.13-4.09-4.28-2.63-1.93-5.39-3.85-8.94-3.48-5.74,.61-11.47,1.27-16.94,3.35-2.48,.94-4.31,2.43-5.5,4.78-5.36,10.53-10.47,21.15-13.35,32.71-1.7,6.81-3.87,13.51-5.37,20.37-2.13,9.77-3.58,19.68-4.38,29.66-.54,6.83-1.23,13.67-1.26,20.5-.04,9.26,.52,18.53,.76,27.79,.18,7.05,1.33,13.96,2.69,20.85,.62,3.15,1.97,4.19,5.16,4.41,.43,.03,.86,.01,1.29,.01,25.69,0,51.37,0,77.06,0ZM384.04,142.99s0,.03,0,.04c1.12,0,2.24,0,3.37,0,5.79,.01,9.33,5.05,7.41,10.53-.69,1.97-2.36,3.32-4.39,3.09-1.63-.19-3.19-.95-4.81-1.31-1.27-.28-2.61-.55-3.88-.43-1.51,.15-1.88,1.53-.83,2.66,.43,.47,.97,.86,1.52,1.18,2.29,1.35,3.74,3.26,4.1,5.95,.22,1.58,.61,3.14,.74,4.73,.33,4.35,2.11,7.56,6.06,9.83,4.54,2.62,8.76,5.8,13.14,8.71,1.94,1.28,3.88,2.58,5.92,3.7,2.51,1.37,5.02,.74,6.79-1.47,.67-.84,1.35-1.68,2.07-2.49,2.95-3.32,6.57-4.13,10.46-2.02,1.95,1.05,3.67,2.55,5.4,3.97,3.22,2.66,6.24,5.54,10.1,7.38,3.81,1.81,7.55,3.79,11.18,5.95,9.16,5.44,18.23,11.03,27.34,16.54,.73,.44,1.52,.82,2.32,1.12,1.6,.6,3,.18,4.07-1.1,.83-.99,1.68-2,2.26-3.14,2.74-5.39,5.18-10.94,6.54-16.83,1.17-5.07,1.72-10.28,2.6-15.42,1.09-6.34,.85-12.71,.49-19.08-.21-3.79-.53-7.57-.82-11.35-.4-5.08-.99-10.12-2.69-14.97-.81-2.32-2.25-4.16-4.05-5.75-1.49-1.31-3.14-.73-3.52,1.22-.18,.93-.21,1.88-.36,2.82-.82,5.12-4.01,8.79-7.33,12.51-4.26,4.78-11.89,5.44-16.94,3.05-4.03-1.9-7.49-4.61-10.18-8.2-1.97-2.62-3.25-5.53-3.08-8.87,.22-4.46,1.16-8.74,3.99-12.34,1.71-2.17,1.8-4.35,.68-6.75-2.85-6.09-5.78-12.14-8.46-18.3-1.55-3.56-4.16-4.93-7.83-4.93-2.85,0-5.71,.06-8.53-.25-3.2-.36-6.36-1.29-8.53-3.86-1.54-1.82-2.68-3.98-3.98-6-.72-1.12-1.34-2.3-2.12-3.38-1.81-2.52-3.67-5.01-5.52-7.5-2.88-3.88-5.67-7.82-8.68-11.6-2.48-3.11-5.64-5.44-9.74-5.81-2.59-.23-5.24-.09-7.85,.09-2.31,.16-3.98,1.66-4.31,3.96-.49,3.45-.77,6.93-1.04,10.4-.13,1.58,.67,2.78,2.14,3.37,4.84,1.96,8.5,5.52,12.23,8.98,.82,.76,1.57,1.61,2.23,2.51,1.17,1.6,1.34,3.07,.49,4.04-1.11,1.26-2.53,.88-3.85,.48-1.77-.53-3.51-1.17-5.27-1.77-2.07-.7-4.16-1.37-6.22-2.12-1.35-.49-2.5-.33-3.61,.6-1.96,1.66-2.78,3.92-3.24,6.32-1.66,8.63-3.33,17.27-4.88,25.92-.45,2.49-.68,5.04-.69,7.57-.01,2.29,1.28,3.31,3.57,3.32,1.38,0,2.77,.06,4.14-.01,1.63-.09,3.26-.2,4.86-.5,.54-.1,1.36-.78,1.37-1.21,.01-.63-.45-1.44-.96-1.88-.77-.67-1.76-1.07-2.65-1.6-2.97-1.79-2.9-4.73-1.87-7.15,.94-2.22,3.73-3.1,6.36-2.06,1.92,.76,3.79,1.66,5.6,2.66,1.79,1,2.86,2.45,2.76,4.72-.14,3.22-.04,6.45-.04,9.68,0,.69,.05,1.38,0,2.07-.34,4.03-3.35,6.45-7.33,6.08-1.97-.18-3.97-.19-5.94-.1-1.45,.07-2.91,.36-4.32,.74-.51,.14-1.26,.9-1.2,1.26,.09,.55,.71,1.14,1.26,1.43,.58,.3,1.33,.34,2.02,.37,1.34,.05,2.68,.02,4.01,.02Zm135.9,202.33c0-10.02,0-20.03-.01-30.05,0-1.16-.13-2.32-.29-3.47-.17-1.33-1.11-2.25-2.45-2.48-.81-.13-1.62-.24-2.44-.28-10.03-.52-20.06-1.01-30.09-1.55-4.73-.25-9.46-.6-14.19-.87-3.44-.19-6.89-.42-10.34-.45-4.18-.03-8.37-.02-12.53,.26-4.76,.32-8.78-.66-11.97-4.58-2.69-3.3-5.74-6.31-8.71-9.37-4.54-4.67-9.13-9.29-13.77-13.87-2.45-2.42-5-4.75-7.6-7.01-1.63-1.42-3.15-.86-3.65,1.2-.82,3.38-.12,6.44,2.25,9,1.17,1.26,2.46,2.43,3.81,3.49,2.02,1.59,3.52,3.48,4.46,5.89,.68,1.75,1.65,3.41,2.57,5.05,1.05,1.88,2.25,3.67,3.31,5.55,4.36,7.78,8.66,15.6,13.02,23.38,7.35,13.13,15.69,25.67,22.43,39.16,3.24,6.47,7.15,12.59,10.55,18.98,2.19,4.12,4.81,7.92,8.1,11.16,3.62,3.56,7.65,6.7,11.37,10.18,1.68,1.57,3.26,3.35,4.47,5.29,2.33,3.72,4.32,7.65,6.54,11.45,4.92,8.41,9.88,16.79,14.83,25.18,1.51,2.56,3,5.14,4.55,7.68,.79,1.3,1.73,2.5,3.3,2.94,1.35,.38,1.95,.03,2.22-1.34,.15-.8,.25-1.62,.26-2.44,.1-15.62,.24-31.25,.25-46.87,0-10.79-.18-21.57-.23-32.36-.04-9.63,0-19.25,0-28.88Zm0-237.52c0-2.5,0-5.01,0-7.51,0-12.04-.01-24.09,.02-36.13,0-1.75-.43-3.19-1.79-4.36-1.57-1.35-3.09-2.76-4.57-4.21-2.34-2.28-4.74-4.52-6.91-6.96-3.91-4.39-7.74-8.83-13.12-11.55-1.18-.6-2.3-1.41-3.26-2.32-4.05-3.87-8.2-7.66-11.99-11.79-3.32-3.62-7.16-6.16-11.85-7.47-3.07-.86-6.19-1.56-9.21-2.56-3.91-1.29-7.51-.93-11.23,.89-4.48,2.2-9.15,4.01-13.77,5.91-2.36,.97-4.65,.64-6.75-.86-1.19-.85-2.42-1.67-3.57-2.57-1.84-1.44-3.86-1.93-6.07-1.19-6.88,2.31-13.5,5.19-19.62,9.14-.78,.5-1.51,1.19-2.06,1.94-2.95,4.1-4.82,8.74-6.53,13.44-.6,1.66,.02,2.41,1.79,2.31,2.63-.15,5.24-.42,7.86-.67,4.01-.37,7.57,.37,10.07,3.89,.3,.42,.68,.78,1.03,1.16,4.17,4.44,7.99,9.14,11.43,14.19,3.42,5.02,7.1,9.88,10.99,14.55,2.63,3.16,6.28,5.02,10.48,5.27,3.17,.19,6.37,.01,9.55,.11,3.54,.11,5.53,1.88,6.62,5.25,.86,2.65,1.92,5.26,3.11,7.78,2.1,4.44,4.37,8.79,6.58,13.18,1.7,3.37,3.79,6.3,7.85,7.06,4.62,.86,9.22,1.85,13.85,2.59,4.14,.66,8.05,1.74,11.55,4.2,1.39,.98,3.05,1.59,4.63,2.27,2.39,1.03,4.16,2.54,4.77,5.2,.32,1.38,.8,2.73,1.25,4.08,2.2,6.58,4.39,13.16,6.66,19.7,.24,.7,1.04,1.2,1.58,1.8,.2-.74,.58-1.49,.58-2.23,.03-14.51,.03-29.01,.03-43.52Zm-197.13,186.64c-4.12,.29-8.27,.42-12.37,.93-3.49,.44-6.96,1.19-10.39,2.03-2.69,.67-3.55,1.99-3.73,4.74-.07,1.12-.2,2.23-.27,3.35-.33,5.33-.54,10.67-.99,16-.75,8.94-1.64,17.87-2.5,26.79-.52,5.41-1.12,10.8-1.63,16.21-.18,1.9,.35,3.69,1.34,5.31,6.62,10.81,13.2,21.65,19.91,32.4,4.41,7.06,9.01,13.99,13.54,20.98,.44,.69,.94,1.35,1.48,1.96,1.33,1.51,2.8,1.57,4.01-.04,.97-1.29,1.71-2.77,2.4-4.24,.62-1.32,.99-2.76,1.56-4.1,.9-2.1,2.31-3.85,4.52-4.54,3.02-.94,4-2.95,3.53-6.13-.3-2.02-.99-4-1.68-5.94-1.04-2.93-.86-5.69,.41-8.53,1.45-3.26,2.69-6.61,3.98-9.94,.44-1.12,.69-2.32,1.16-3.42,.83-1.97,2.11-3.6,4.18-4.34,1.9-.68,3.84-1.32,5.8-1.79,4.25-1.01,8.46-1.51,12.08,1.85,.82,.76,1.49,.27,1.72-.63,.28-1.08,.41-2.2,.55-3.31,.73-5.86,1.22-11.77,2.2-17.58,1.93-11.39,4.11-22.74,6.24-34.09,1.02-5.41,.45-6.77-4.14-9.8-10.05-6.63-21.27-10.18-33-12.13-6.58-1.09-13.23-1.98-19.96-2Zm26.16,215.83c3.02,0,6.04,.04,9.05-.01,2.1-.04,3.65-1.7,3.83-3.81,.3-3.59-.89-6.84-2.43-9.93-5.69-11.41-12.7-22.03-19.91-32.51-4.57-6.64-9.44-13.08-14.16-19.62-3.89-5.38-7.94-10.66-11.57-16.21-4.7-7.17-9.06-14.57-13.58-21.87-5.28-8.54-10.32-17.26-15.93-25.58-6.78-10.04-13.96-19.81-21.14-29.57-3.81-5.17-7.88-10.15-11.12-15.73-.65-1.12-1.42-2.16-2.13-3.24-1.36-2.09-3.3-3.3-5.66-4.04-2.29-.72-4.5-1.71-6.78-2.48-1.16-.39-2.41-.79-3.61-.76-4.6,.13-9.21,.33-13.79,.7-2.87,.24-5.72,.78-8.56,1.32-.77,.15-1.44,.79-2.15,1.21,.39,.64,.71,1.33,1.18,1.91,1.21,1.51,2.59,2.89,3.71,4.46,7.93,11.09,15.54,22.41,23.76,33.27,14.62,19.29,28.86,38.86,42.83,58.61,8.11,11.47,15.79,23.26,23.59,34.96,5.14,7.71,10.31,15.41,15.15,23.31,3.51,5.72,6.48,11.77,9.72,17.66,1.2,2.18,2.33,4.43,3.79,6.43,.58,.8,1.95,1.4,2.98,1.44,4.3,.16,8.62,.07,12.93,.07ZM54.27,328.37c.11,0,.23,0,.34,0,0-1.25,.02-2.5,0-3.75-.03-2.05-.77-2.84-2.83-2.82-1.5,.01-3.02,.37-4.51,.29-2.56-.15-4.54,2.05-4.72,4.24-.12,1.39-.15,2.93,.34,4.19,2.58,6.71,4.04,13.83,7.48,20.21,.41,.75,.76,1.57,.93,2.4,.99,4.85,2.02,9.7,2.82,14.58,.87,5.27,1.49,10.59,3.83,15.5,1.46,3.08,3.74,5.17,6.92,6.42,2.03,.8,3.98,1.84,5.94,2.82,4.07,2.05,8.31,3.46,12.93,2.89,3.85-.47,7.67-1.18,11.49-1.82,3.04-.51,5.11-2.15,6.38-5.03,4.08-9.31,8.31-18.56,12.42-27.87,1.52-3.45,4.04-5.85,7.33-7.53,2.46-1.25,4.93-2.49,7.43-3.64,1.84-.84,3.7-1.66,5.63-2.26,3.21-1,6.48-1.78,9.71-2.71,1.2-.34,2.4-.74,3.51-1.28,1.39-.67,1.69-1.78,.93-3.12-.79-1.39-1.55-2.82-2.54-4.05-3.24-4.06-4.01-8.56-3.19-13.62,.62-3.81,.95-7.7,.45-11.6-.49-3.87-2.12-6.73-6.06-8.02-5.23-1.72-10.15-4.14-14.68-7.26-4.16-2.87-7.29-6.6-8.4-11.69-.78-3.58-1.47-7.18-2.22-10.76-.5-2.43-1.56-4.54-3.95-5.57-3.51-1.52-7.15-2.02-10.82-.56-2.68,1.07-5.35,2.17-7.94,3.45-4.47,2.2-9.1,4.1-12.87,7.58-1.72,1.58-4.1,2.05-6.45,1.16-2.45-.93-4.8-2.17-7.29-2.96-2.14-.68-4.41-1.2-6.65-1.31-3.56-.17-5.35,2.47-5.09,5.85,.17,2.23,.57,4.45,.7,6.69,.14,2.34,1.35,3.72,3.45,4.48,2.72,.98,5.45,1.9,8.14,2.96,4.97,1.95,7.88,6.23,7.75,11.54-.05,2.02-.51,4.02-.69,6.03-.46,5.41-.92,10.82-1.27,16.23-.53,8.1-.37,16.2,.23,24.29,.11,1.48,.23,3.04,1.86,3.7,1.65,.67,2.82-.38,3.87-1.42,2.3-2.26,5.06-3.53,8.23-4.02,.55-.08,1.1-.25,1.62-.45,1.59-.61,1.78-1.7,.52-2.81-.94-.82-1.92-1.61-2.85-2.44-1.62-1.46-2.76-3.24-3.1-5.4-.29-1.87-.46-3.77-.52-5.66-.18-5.54-.61-11.04-2.43-16.31-.84-2.43-2.04-4.74-2.96-7.15-.79-2.06-.22-3.97,1.6-5.24,1.08-.76,2.3-1.34,3.52-1.86,5.97-2.55,12.25-4.56,16.64-9.8,2.38-2.83,6.12-2.66,8.71-1.11,1.37,.82,2.62,1.83,3.97,2.67,2.92,1.82,5.87,3.59,8.8,5.38,1.1,.67,2.27,1.27,3.25,2.08,1.77,1.47,2.35,3.99,1.25,6-1.73,3.2-3.95,5.88-8.15,5.37-1.92-.23-3.43,.47-4.79,1.75-1.38,1.31-3.1,1.92-4.97,1.83-1.63-.07-3.24-.53-4.87-.59-3.65-.13-7.32-.29-10.96-.1-2.22,.12-2.76,1.16-2.4,3.4,.72,4.38,1.58,8.74,2.2,13.14,.36,2.58,1.7,4.06,4.05,4.98,3.25,1.27,4.68,3.53,4.58,7.04-.04,1.24-.25,2.49-.55,3.69-.94,3.67-1.76,7.39-4.08,10.54-1.38,1.88-3.15,2.88-5.51,2.78-1.03-.04-2.07,.03-3.11-.01-2.36-.09-4.12,.97-5.59,2.72-.94,1.12-1.88,2.28-2.99,3.22-2.93,2.44-6.47,3.03-9.85,1.67-5.02-2.02-8.21-5.92-9.04-11.42-.27-1.78-.26-3.6-.33-5.4-.2-5.52-.4-11.03-.54-16.55-.07-2.93-.01-5.86-.01-8.79Zm44.63,182.16c9.71,0,19.42,0,29.14-.01,.94,0,1.9-.11,2.82-.32,1.6-.38,2.15-1.08,1.82-2.71-.34-1.67-.9-3.32-1.51-4.92-.9-2.37-1.71-4.77-1.27-7.3,.74-4.24,.53-8.48,.53-12.75,.01-12.89-.47-25.79,.57-38.68,1.09-13.53,3.32-26.87,6.01-40.13,1.37-6.74,3.64-13.29,5.34-19.97,1.27-4.98,2.59-9.92,4.85-14.56,2.1-4.3,4.24-8.57,6.3-12.89,.34-.73,.32-1.63,.46-2.45-.87-.07-1.82-.4-2.59-.16-6.18,1.9-12.35,3.81-18.45,5.93-2.71,.94-5.31,2.27-7.83,3.67-2.41,1.34-3.91,3.39-4.02,6.36-.07,1.97-.42,3.95-.76,5.9-.83,4.75-1.91,9.46-2.58,14.23-1.3,9.22-2.38,18.47-3.58,27.7-.94,7.22-1.87,14.44-2.9,21.65-.72,5.08-1.67,10.12-2.41,15.19-1.65,11.26-3.26,22.52-4.82,33.79-.68,4.88-2.32,9.42-4.4,13.85-1.47,3.13-3.68,5.12-7.2,5.22-4.52,.12-9.06,.31-13.57,.03-3.46-.21-6.89-1.06-10.33-1.67-2.03-.36-3.11,.17-3.38,1.76-.26,1.53,.75,2.77,2.58,3.08,.68,.12,1.37,.18,2.06,.18,9.71,.01,19.42,0,29.14,0Zm114.74-196.79s0,.07,0,.11c2.71-.12,5.43-.23,8.14-.37,5.38-.27,10.75-.52,16.12-.86,3.5-.22,5.22-2.44,4.63-5.86-.26-1.53-.7-3.03-.85-4.57-.32-3.17-.43-6.37-.77-9.53-.27-2.5-1.72-3.38-4.16-2.89-1.81,.37-3.64,.81-5.47,.87-2.83,.1-4.96-2.65-4.46-5.42,.48-2.65,2.37-3.96,4.68-4.68,3.54-1.1,7.14-1.99,10.92-1.78,1.25,.07,2.5,.04,3.75,0,1.38-.06,1.93-.8,1.6-2.15-.34-1.42-.76-2.83-1.13-4.25-.46-1.77-1.65-2.68-3.5-2.52-1.11,.1-2.21,.33-3.32,.53-3.26,.58-6.1,.24-8.18-2.86-2.94-4.41-2.39-9.67,.69-13.6,.95-1.21,2.36-1.99,4.01-1.46,1.67,.54,2.59,1.78,2.79,3.54,.04,.38,.13,.76,.2,1.15,.29,1.77,.94,2.22,2.75,2.09,3-.22,6.01-.38,9.02-.56,.26-.02,.52,0,.77-.06,.98-.2,1.23-.73,.69-1.56-.37-.58-.84-1.09-1.24-1.66-4.23-5.93-9.6-10.83-14.47-16.19-2.35-2.58-5.02-3.6-8.56-3.61-3.53-.01-6.5,.54-9.05,3.1-.99,1-2.43,1.17-3.74,.48-1.4-.73-1.57-2.05-1.37-3.47,.48-3.34,2.48-5.71,4.95-7.77,2.11-1.75,2.16-2.23,.5-4.45-2.37-3.18-4.88-6.28-6.99-9.63-2.36-3.75-5.12-7.15-8.02-10.45-1.41-1.61-3.14-2.84-5.26-3.39-1.24-.32-1.85,.32-1.46,1.54,.24,.73,.58,1.44,.98,2.09,1.83,2.97,3.73,5.91,5.56,8.88,1.7,2.76,3.41,5.53,3.44,8.93,.04,4.4-.95,8.43-4.51,11.37-4.23,3.49-9.02,6.02-14.18,7.84-1.58,.56-3.22,.99-4.78,1.61-2.31,.92-2.92,2.84-1.35,4.57,1.82,2.01,3.74,3.97,5.79,5.74,2.61,2.25,4.53,4.9,5.16,8.28,.73,3.9,1.24,7.83,1.85,11.75,.59,3.8,1.29,7.59,3.02,11.06,1.68,3.35,3.48,6.64,5.29,9.92,1.15,2.08,1.42,4.23,.87,6.5-.63,2.6-1.33,5.17-1.95,7.77-.84,3.52,.96,5.82,4.6,5.88,1.99,.03,3.97,0,5.96,0Zm-21.9-126.39c-.02-.15-.04-.3-.07-.45-.72-.21-1.44-.58-2.17-.61-2.58-.13-5.17-.28-7.75-.18-7.01,.28-14.02,.75-21.04,1.02-2.58,.1-5.18-.05-7.75-.26-2.45-.2-4.23,.85-5.79,2.55-.9,.99-1.71,2.11-2.79,2.85-3.58,2.46-7.24,4.81-10.91,7.14-2.29,1.45-4.81,2.27-7.55,2.45-1.07,.07-2.14,.26-3.19,.5-1.41,.32-2.73,.97-3,2.49-.29,1.61,1.06,2.35,2.22,3,1.91,1.07,3.89,2.03,5.85,3.04,5.88,3.03,11.36,6.69,16.72,10.53,1.85,1.32,3.75,2.65,5.79,3.63,4.73,2.28,9.59,4.29,14.35,6.52,1.54,.72,3.06,1.62,4.33,2.73,1.81,1.59,1.99,1.61,4.08,.37,1.98-1.17,4.09-2.17,6.24-3,1.96-.75,4.07-1.1,6.09-1.72,3.15-.97,6.18-2.19,8.7-4.4,1.42-1.24,1.63-2.77,.7-4.42-.21-.38-.45-.74-.68-1.1-2.85-4.42-5.68-8.85-8.57-13.25-2.72-4.15-3.24-8.4-.65-12.77,1.38-2.33,3.24-4.24,5.53-5.71,.45-.29,.86-.64,1.3-.97ZM84.4,494.56s0-.02,0-.03c1.12,0,2.25,.07,3.36-.01,3.57-.26,5-1.61,5.5-5.14,.85-6.1,1.67-12.21,2.51-18.32,.8-5.81,1.63-11.61,2.41-17.42,1.45-10.85,2.83-21.71,4.31-32.56,.68-5.04,1.51-10.06,2.27-15.09,.28-1.86-.27-2.46-2.07-2.13-1.06,.2-2.08,.54-3.13,.78-3.99,.91-7.99,1.77-11.97,2.72-2.46,.58-3.91,2.05-4.22,4.72-.8,6.81-1.77,13.59-2.6,20.39-1.44,11.97-3.68,23.86-3.92,35.96-.12,5.73-.45,11.46-.51,17.19-.02,1.86,.36,3.78,.87,5.59,.66,2.36,2.31,3.38,4.74,3.36,.82,0,1.64,0,2.46,0Zm435.53-233.86s.01,0,.02,0c0-1.34,0-2.68,0-4.01,0-.09,0-.17,0-.26-.07-2.32-.96-3.64-3.16-4.34-4.96-1.58-9.96-3.07-14.93-4.61-6.74-2.09-13.38-4.56-20.53-5.01-2.21-.14-3.83-1.51-5.28-3.18-2.81-3.21-5.54-6.54-8.7-9.38-4.63-4.16-9.94-7.41-15.68-9.91-2.61-1.13-5.16-2.4-7.82-3.39-1.96-.73-4.04-1.16-6.09-1.61-1.05-.23-2.03,.3-2.19,1.35-.3,1.95-.47,3.92,1.09,5.6,1.97,2.11,3.86,4.3,5.71,6.52,6.62,7.95,13.12,16,19.85,23.87,2.59,3.03,5.62,5.7,8.54,8.44,1.67,1.57,3.75,2.45,6.06,2.65,2.62,.23,5.25,.31,7.87,.56,8.41,.8,16.81,1.6,25.21,2.51,2.26,.24,4.48,.88,6.72,1.29,2.35,.42,3.21-.28,3.3-2.67,.05-1.46,0-2.93,0-4.4Zm-233.86,39.3s-.07,0-.1,0c0-.69,0-1.38,0-2.07-.04-2.66-1.14-4.62-3.48-6.06-3.73-2.29-7.57-4.32-11.79-5.45-2.69-.72-5.46-1.15-8.22-1.57-1.23-.19-2.47,.18-3.15,1.36-1.42,2.44-3.36,4.36-5.67,5.92-1.49,1.01-1.97,2.45-1.8,4.16,.08,.77,.23,1.53,.35,2.3,.76,4.91,1.49,9.82,.51,14.78-.39,1.97,.07,3.44,1.86,4.51,2.12,1.27,3.7,3.09,4.9,5.23,5.73,10.22,12.74,19.57,19.83,28.86,.4,.52,1.16,.76,1.75,1.12,.35-.65,.69-1.3,1.03-1.95,.04-.07,.02-.17,.02-.26,.61-6.61,1.25-13.21,1.8-19.82,.39-4.63,.66-9.27,.98-13.91,.39-5.71,.78-11.42,1.17-17.14Zm71.27,86.19c-1.6-.34-2.65,.7-3.43,2.1-.37,.67-.67,1.42-.8,2.17-.45,2.61-.47,5.22,.16,7.82,.85,3.53,1.68,7.07,.81,10.72-.48,2.01-.9,4.04-1.48,6.02-.59,1.99,.06,3.45,1.62,4.64,.62,.47,1.28,.9,1.84,1.42,2.55,2.37,5.15,4.71,7.6,7.18,1.64,1.65,3.04,3.53,4.59,5.26,1.53,1.71,2.88,1.76,4.53,.2,.56-.53,1.16-1.05,1.61-1.68,5.08-7.13,10.32-14.15,13.87-22.23,1.9-4.34,3.8-8.68,5.52-13.09,.45-1.17,.55-2.7,.21-3.9-.73-2.59-1.7-5.14-2.84-7.58-2.05-4.41-4.27-8.75-6.5-13.07-.27-.52-1.01-.79-1.53-1.18-.35,.55-.93,1.08-1,1.67-.68,5.91-1.2,11.83-1.92,17.73-.21,1.76-.59,3.62-1.4,5.17-1.97,3.76-5.29,4.79-9.15,3.13-1.06-.46-2.1-1-3.09-1.6-2.95-1.79-4.91-4.23-5.32-7.81-.26-2.3-1.35-3.08-3.9-3.08Zm149.5-89.17c.56-.03,1.55-.03,2.53-.14,.33-.04,.63-.34,.94-.52-.22-.28-.38-.7-.67-.82-1.46-.64-2.93-1.26-4.43-1.79-6.41-2.25-13.02-3.6-19.71-4.67-6.05-.97-12.09-1.98-18.23-1.98-3.18,0-6.37,.36-9.55,.55-3.58,.21-6.53-.88-8.84-3.82-1.94-2.47-4.07-4.81-6.3-7.02-4.4-4.38-8.9-8.66-13.42-12.93-2.19-2.07-4.44-4.1-6.78-5.99-2.45-1.97-4.04-1.9-6.5,.04-.78,.61-1.49,1.31-2.19,2.01-.88,.88-1.01,1.91-.25,2.91,.7,.92,1.45,1.82,2.27,2.65,5.72,5.75,11.43,11.52,17.22,17.2,3.08,3.02,6.29,5.9,9.5,8.78,1.52,1.36,3.2,2.5,5.37,2.59,8.22,.33,16.44,.62,24.66,1,6.63,.31,13.25,.71,19.87,1.09,4.69,.27,9.37,.56,14.49,.87Zm13.11-87.83c0-9.24-.03-18.47,.02-27.71,.01-2.33-1.04-3.94-2.92-5.11-1.81-1.13-2.89-.66-3.11,1.43-.47,4.59-.78,9.2-1.31,13.78-.65,5.65-1.53,11.25-3.76,16.58-3.12,7.47-6,15.04-8.97,22.58-.86,2.19-.44,3.45,1.62,4.09,5.01,1.57,10.05,3.09,15.11,4.49,2.49,.69,3.32-.08,3.32-2.68,0-9.15,0-18.3,0-27.45Zm-153.85,267.43c-.09-.73-.23-1.58-.3-2.43-.57-7.13-2.29-14-4.68-20.73-3.59-10.08-9.3-18.5-18.42-24.41-2.08-1.35-3.36-1.28-4.85,.73-.92,1.24-1.65,2.61-2.47,3.92-.56,.9-.56,1.81-.02,2.69,1.08,1.76,2.14,3.54,3.33,5.22,4.39,6.24,8.94,12.37,13.22,18.69,3.82,5.63,7.37,11.45,11.05,17.18,.35,.54,.69,1.1,1.11,1.59,.26,.3,.78,.72,1,.63,.36-.15,.69-.63,.81-1.03,.17-.61,.15-1.27,.23-2.05Zm95.9-201.36c1.05-.13,2.17-.23,3.27-.41,1.27-.21,1.55-.84,.79-1.88-.91-1.25-1.84-2.52-2.9-3.64-2.13-2.25-4.5-4.29-6.52-6.64-5.06-5.89-9.96-11.91-14.95-17.86-1.91-2.28-3.85-4.54-5.83-6.75-.78-.87-1.57-.82-1.8,.1-.67,2.68-2.44,4.61-4.13,6.62-1.01,1.19-.99,2.01-.06,3.26,.39,.51,.83,.99,1.3,1.44,7.07,6.83,14.15,13.66,21.23,20.49,.99,.96,2.05,1.86,3.02,2.83,1.81,1.82,4.13,2.19,6.58,2.44Zm-340.69-15.23c2.89-.71,5.51-1.24,8.05-2.01,4.6-1.4,9.37-2.52,13.68-4.57,4.91-2.33,9.41-5.54,14.08-8.37,.07-.04,.14-.1,.21-.16,.98-.8,1.04-1.84-.09-2.39-2.15-1.04-4.29-2.45-6.81-2.08-1.54,.22-3.03,.92-4.5,1.5-9.18,3.61-17.22,9.21-25.41,14.56-.76,.5-1.6,1.26-1.09,2.22,.33,.62,1.26,.91,1.85,1.3Zm44.86,79.26c1.04-.3,2.8-.84,4.58-1.32,4.14-1.1,8.06-3.08,12.47-3.14,3.63-.05,5.76-2.15,6.96-5.37,.36-.96,.79-2.11-.16-2.89-.9-.74-1.75,.15-2.57,.56-2.45,1.23-4.81,2.84-7.4,3.57-5.06,1.44-10.06,.65-14.82-1.61-2.45-1.16-4.91-2.3-7.43-3.28-.74-.29-1.7,.01-2.56,.04,.14,.8,.08,1.71,.45,2.38,1.58,2.86,3.27,5.67,4.96,8.47,1.07,1.77,2.67,2.64,5.53,2.58Zm-100.78,115.78c.2,.04,.41,.07,.61,.11,.17-.53,.43-1.04,.51-1.58,.57-3.75,1.13-7.5,1.64-11.26,.94-6.92,1.91-13.84,2.74-20.77,.47-3.93,.67-7.9,.98-11.85,.14-1.8-.93-2.9-2.31-3.74-2.7-1.65-4.39-.73-4.48,2.41,0,.13,0,.26,0,.39,0,13.08-.02,26.15,.01,39.23,0,2.35,.19,4.71,.3,7.06ZM482.47,135.62c0-3.63-1.62-6.34-4.51-7.05-3.76-.93-7.26-.49-10.14,2.46-1.63,1.67-1.92,3.68-.54,5.58,1.74,2.4,4.02,4.11,6.89,4.98,3.59,1.08,8.68-1.19,8.3-5.97ZM171.97,322.15c.02,.07,.04,.14,.06,.21,2.47-.56,4.97-1.02,7.4-1.7,2.73-.76,5.5-1.51,8.05-2.69,1.42-.66,2.5-2.14,3.59-3.38,.27-.31,.12-1.29-.19-1.67-.21-.26-1.14-.19-1.58,.05-1.17,.64-2.26,1.41-3.35,2.19-2.67,1.91-5.61,2.62-8.82,1.98-2.62-.52-5.21-1.17-7.81-1.76-4.11-.93-8.22-1.91-12.35-2.74-.63-.13-1.77,.32-2.02,.83-.28,.55,.11,1.51,.38,2.24,.13,.35,.6,.6,.96,.83,4.32,2.72,9.16,4.12,14.01,5.46,.53,.15,1.11,.11,1.67,.16Zm6.26-37.56c-.07-.18-.14-.35-.21-.53-.99,.16-1.99,.28-2.96,.49-4.29,.92-8.54,2-13.02,1.74-2.35-.13-4.72,.27-7.09,.31-3.44,.06-6.89,.15-10.32-.04-3.09-.17-6.15-.77-9.24-1.04-.6-.05-1.26,.51-1.89,.79,.47,.46,.86,1.09,1.43,1.36,2.45,1.17,4.91,2.32,7.44,3.29,1.22,.46,2.6,.68,3.91,.66,3.7-.06,7.4-.28,11.09-.49,6.95-.4,13.44-2.44,19.62-5.54,.46-.23,.83-.65,1.24-.99Zm-37.12-49.09c-.46-.24-.89-.56-1.38-.71-2.26-.68-4.7-1.09-6.77,.07-4.09,2.3-8,4.93-11.95,7.48-3.38,2.18-5.25,5.64-7.28,8.93-.17,.28-.1,.86,.09,1.16,.1,.16,.75,.13,1.04-.02,1.03-.54,2.02-1.15,3.01-1.76,6.46-3.97,12.92-7.95,19.38-11.93,.91-.56,1.83-1.13,2.7-1.76,.33-.24,.53-.66,1.16-1.47Zm-3.05,28.94c.03,.16,.06,.33,.09,.49,.42,.19,.83,.5,1.26,.53,3.14,.24,6.28,.52,9.36-.48,5.46-1.78,10.79-3.85,15.7-6.89,1.39-.86,2.85-1.63,4.14-2.62,.52-.4,1-1.36,.88-1.93-.12-.57-.94-1.18-1.58-1.42-.63-.23-1.48-.17-2.14,.04-1.67,.54-3.4,1.05-4.91,1.91-3.76,2.11-7.42,4.39-11.1,6.64-1.91,1.17-3.93,1.93-6.16,2.19-1.24,.15-2.48,.32-3.69,.62-.65,.16-1.23,.61-1.84,.92Zm347.55,12.08c-.03,.19-.06,.38-.09,.57,.98,.29,1.95,.7,2.95,.84,9.32,1.38,18.43,3.55,27.25,6.89,.63,.24,1.34,.34,2.02,.36,1.79,.06,2.45-.89,1.98-2.66-.46-1.72-1.8-2.42-3.31-2.7-4.27-.8-8.54-1.63-12.85-2.17-4.83-.61-9.69-.94-14.54-1.33-1.12-.09-2.27,.11-3.4,.18ZM45.58,254.49c-.39-5.99-2.02-11.04-5.6-15.31-.27-.33-1.24-.42-1.68-.2-2.1,1.03-3.16,4.42-2.05,6.51,1.84,3.46,3.72,6.89,5.63,10.31,.46,.82,1.02,1.6,1.65,2.3,.71,.8,1.29,.65,1.53-.39,.27-1.21,.41-2.46,.53-3.21Zm145.12,48.56c-.06-.23-.11-.47-.17-.7-1.04,0-2.09-.1-3.11,.02-3.42,.4-6.82,1.09-10.24,1.29-4.98,.28-9.97,.26-14.96,.31-1.72,.02-3.44-.2-5.16-.18-.49,0-.97,.5-1.46,.77,.33,.46,.58,1.05,1.02,1.35,.47,.32,1.12,.43,1.71,.51,7.09,.94,14.2,1.9,21.32,.27,2.89-.66,5.77-1.36,8.62-2.19,.88-.25,1.63-.96,2.43-1.46ZM46.55,237.12c.19,.5,.4,1.3,.8,2,.55,.97,1.2,1.89,1.87,2.79,1.1,1.48,1.9,3.06,2.13,4.92,.09,.68,.27,1.36,.53,1.99,.14,.35,.52,.61,.8,.91,.25-.27,.6-.49,.73-.81,.38-.95,.75-1.93,.99-2.92,.36-1.51,.49-3.07,.92-4.56,.72-2.47,1.6-4.9,2.41-7.34,.47-1.45,.13-1.89-1.39-1.86-.26,0-.52,.02-.77,.09-2.35,.7-4.72,1.36-7.04,2.15-1.04,.35-1.87,1.08-1.97,2.64Zm83.15,34.71c0,.16,0,.33,0,.49,.56,.15,1.11,.42,1.68,.44,6.16,.18,12.32,.44,18.48,.42,2.42,0,4.69-1.07,6.72-2.45,.31-.21,.5-.62,.75-.93-.37-.14-.74-.37-1.12-.4-1.37-.12-2.78-.01-4.12-.28-3.94-.79-7.72-.46-11.59,.69-3.07,.91-6.36,1.1-9.54,1.63-.42,.07-.83,.25-1.24,.38Zm-44.08-34.44c.1,.28,.15,.72,.32,.78,.25,.08,.68,0,.89-.19,.92-.84,1.89-1.65,2.65-2.62,3.84-4.88,7.62-9.79,11.41-14.71,.36-.47,.7-.99,.94-1.53,.13-.31,.18-.89,0-1.04-.27-.23-.83-.36-1.15-.24-.58,.23-1.11,.62-1.59,1.04-5.48,4.78-9.12,10.95-12.84,17.05-.26,.43-.41,.94-.63,1.46Zm-11.41-.07c.14,.36,.19,.88,.41,.97,.26,.1,.75-.09,1-.32,.52-.45,1-.96,1.39-1.52,1.39-1.97,2.74-3.96,4.08-5.96,1.63-2.43,3.24-4.87,4.81-7.34,.25-.39,.21-.95,.31-1.43-.52-.09-1.06-.3-1.56-.23-1.72,.25-2.87,1.43-3.69,2.8-2.07,3.51-4.03,7.09-5.98,10.67-.38,.7-.51,1.54-.77,2.36Zm-39.29,34.08c-.26-.59-.52-1.63-1.11-2.44-1.31-1.81-2.74-3.54-4.21-5.22-.49-.56-1.19-1.07-1.89-1.29-.55-.17-1.42-.09-1.85,.25-1.94,1.56-1.59,4.66,.54,5.9,1.71,1,3.38,2.05,5.07,3.09,.62,.38,1.21,.83,1.86,1.15,.97,.48,1.57,.06,1.59-1.45Zm137.19,4.33c2.02-.66,4.24-1.13,6.2-2.11,1.61-.8,3.01-2.1,4.33-3.36,.88-.84,.86-2.77,.18-3.34-1-.84-1.83,0-2.7,.39-.08,.04-.16,.07-.23,.12-2.88,2.1-5.78,4.19-8.63,6.33-.37,.28-.54,.81-.81,1.23,.47,.21,.94,.43,1.66,.75Zm-139.63,16.87c-.02-.14-.04-.27-.06-.41-.52-.16-1.04-.34-1.57-.48-3.29-.83-6.57-1.66-9.87-2.48-1.04-.26-2.08-.52-3.14-.67-1.01-.14-1.76,.51-1.93,1.37-.12,.64,.21,1.5,.62,2.05,.34,.46,1.06,.75,1.66,.89,4.34,1.02,8.71,.97,13.08,.27,.42-.07,.79-.36,1.19-.54Zm.67-10.24c.48-.32,1.17-.53,1.27-.91,.11-.39-.2-1.11-.56-1.39-2.75-2.21-5.54-4.36-8.34-6.5-.41-.31-.88-.69-1.34-.73-.6-.05-1.46,0-1.8,.38-.39,.44-.5,1.29-.44,1.94,.04,.42,.53,.89,.93,1.18,2.33,1.62,4.66,3.25,7.06,4.75,.92,.58,2.05,.83,3.2,1.28Zm70.8-41.15c-.37,0-.56-.05-.7,0-3.66,1.38-7.27,6.33-7.32,10.17,0,.64,.46,1.28,.71,1.92,.54-.35,1.28-.58,1.57-1.07,1.86-3.15,3.64-6.35,5.4-9.55,.22-.41,.22-.94,.34-1.48Zm-67.06,19.88c-.12-.52-.13-.7-.21-.85-1.28-2.67-2.51-5.36-3.9-7.97-.3-.56-1.34-1.27-1.74-1.11-.63,.24-1.08,1.11-1.44,1.8-.19,.37-.09,.93,0,1.39,.71,3.54,3.31,5.5,6.19,7.17,.22,.13,.75-.28,1.09-.42Zm95.91-30.27c-.57,0-1.24-.2-1.69,.03-3.27,1.62-6.55,3.22-9.71,5.04-1.98,1.14-3.11,3.16-4.38,5.24,5.51-3.22,11.24-5.63,15.78-10.31Zm-70.42,13.68c.11,.04,.23,.09,.34,.13,.27-.41,.61-.79,.81-1.24,2.01-4.38,3.99-8.76,5.98-13.14,.11-.23,.22-.49,.23-.73,0-.31-.01-.85-.16-.9-.3-.11-.85-.09-1.02,.11-.63,.74-1.26,1.52-1.68,2.39-.87,1.77-1.49,3.67-2.43,5.41-1.21,2.25-1.65,4.69-2.13,7.13-.05,.27,.03,.56,.06,.84Zm43.17-17.06c.09,.11,.19,.23,.28,.34,.58-.18,1.23-.25,1.73-.56,1.87-1.14,3.72-2.32,5.53-3.55,.6-.4,1.21-.91,1.55-1.53,.3-.55,.5-1.45,.25-1.94-.19-.35-1.19-.39-1.81-.36-.42,.02-.89,.35-1.22,.66-1.84,1.75-3.67,3.51-5.45,5.33-.41,.42-.58,1.06-.86,1.6ZM30.78,304.13s0-.06-.01-.1c-1.32,.18-2.67,.25-3.95,.57-.57,.14-1.02,.77-1.52,1.18,.46,.5,.86,1.34,1.4,1.45,2.86,.56,5.65,.12,8.26-1.16,.41-.2,.59-.86,.87-1.3-.48-.29-.95-.81-1.44-.83-1.19-.06-2.4,.11-3.6,.19Zm-4.26-18.51c-.3-.45-.44-.85-.72-1.05-1.56-1.13-3.14-2.24-4.75-3.29-.78-.51-1.56-.43-2.14,.4-.6,.85-.09,1.5,.5,2.01,1.68,1.46,3.77,1.97,5.9,2.27,.33,.05,.7-.18,1.21-.33Zm.14,13.63c.02-.15,.05-.3,.07-.44-2.12-.64-4.22-1.33-6.37-1.86-.5-.12-1.6,.28-1.62,.52-.06,.63,.21,1.37,.56,1.94,.24,.38,.81,.72,1.27,.78,2.11,.24,4.17,0,6.09-.93Zm156.83-5.33c1.2-.33,2.35-.55,3.41-1,.46-.19,.72-.85,1.07-1.29-.56-.22-1.2-.72-1.66-.59-1.14,.33-2.22,.92-3.28,1.49-.24,.13-.51,.65-.42,.82,.13,.26,.55,.38,.88,.58Z"/><path d="M70.86,380.49c-2.83,.09-5.32-.87-7.56-2.53-1.29-.95-1.77-2.21-1.42-3.47,.33-1.18,1.35-1.87,3.02-1.98,.73-.05,1.51-.11,2.18,.09,4.21,1.29,8.42,.8,12.68,.32,2.24-.25,4.56-.05,6.83,.12,1.49,.11,2.69,1.36,2.77,2.49,.07,1.1-.85,2.46-2.28,2.81-1.91,.46-3.89,.67-5.84,.95-2.94,.42-5.88,.8-8.83,1.18-.51,.06-1.03,0-1.55,0Z"/>
</svg>